%TF.GenerationSoftware,KiCad,Pcbnew,9.0.6*%
%TF.CreationDate,2025-12-14T01:17:05-08:00*%
%TF.ProjectId,base-station,62617365-2d73-4746-9174-696f6e2e6b69,rev?*%
%TF.SameCoordinates,Original*%
%TF.FileFunction,Legend,Bot*%
%TF.FilePolarity,Positive*%
%FSLAX46Y46*%
G04 Gerber Fmt 4.6, Leading zero omitted, Abs format (unit mm)*
G04 Created by KiCad (PCBNEW 9.0.6) date 2025-12-14 01:17:05*
%MOMM*%
%LPD*%
G01*
G04 APERTURE LIST*
%ADD10C,0.150000*%
G04 APERTURE END LIST*
D10*
X109638332Y-102277200D02*
X109495475Y-102324819D01*
X109495475Y-102324819D02*
X109257380Y-102324819D01*
X109257380Y-102324819D02*
X109162142Y-102277200D01*
X109162142Y-102277200D02*
X109114523Y-102229580D01*
X109114523Y-102229580D02*
X109066904Y-102134342D01*
X109066904Y-102134342D02*
X109066904Y-102039104D01*
X109066904Y-102039104D02*
X109114523Y-101943866D01*
X109114523Y-101943866D02*
X109162142Y-101896247D01*
X109162142Y-101896247D02*
X109257380Y-101848628D01*
X109257380Y-101848628D02*
X109447856Y-101801009D01*
X109447856Y-101801009D02*
X109543094Y-101753390D01*
X109543094Y-101753390D02*
X109590713Y-101705771D01*
X109590713Y-101705771D02*
X109638332Y-101610533D01*
X109638332Y-101610533D02*
X109638332Y-101515295D01*
X109638332Y-101515295D02*
X109590713Y-101420057D01*
X109590713Y-101420057D02*
X109543094Y-101372438D01*
X109543094Y-101372438D02*
X109447856Y-101324819D01*
X109447856Y-101324819D02*
X109209761Y-101324819D01*
X109209761Y-101324819D02*
X109066904Y-101372438D01*
X108733570Y-101324819D02*
X108495475Y-102324819D01*
X108495475Y-102324819D02*
X108304999Y-101610533D01*
X108304999Y-101610533D02*
X108114523Y-102324819D01*
X108114523Y-102324819D02*
X107876428Y-101324819D01*
X107019285Y-101324819D02*
X107495475Y-101324819D01*
X107495475Y-101324819D02*
X107543094Y-101801009D01*
X107543094Y-101801009D02*
X107495475Y-101753390D01*
X107495475Y-101753390D02*
X107400237Y-101705771D01*
X107400237Y-101705771D02*
X107162142Y-101705771D01*
X107162142Y-101705771D02*
X107066904Y-101753390D01*
X107066904Y-101753390D02*
X107019285Y-101801009D01*
X107019285Y-101801009D02*
X106971666Y-101896247D01*
X106971666Y-101896247D02*
X106971666Y-102134342D01*
X106971666Y-102134342D02*
X107019285Y-102229580D01*
X107019285Y-102229580D02*
X107066904Y-102277200D01*
X107066904Y-102277200D02*
X107162142Y-102324819D01*
X107162142Y-102324819D02*
X107400237Y-102324819D01*
X107400237Y-102324819D02*
X107495475Y-102277200D01*
X107495475Y-102277200D02*
X107543094Y-102229580D01*
X109638332Y-67777200D02*
X109495475Y-67824819D01*
X109495475Y-67824819D02*
X109257380Y-67824819D01*
X109257380Y-67824819D02*
X109162142Y-67777200D01*
X109162142Y-67777200D02*
X109114523Y-67729580D01*
X109114523Y-67729580D02*
X109066904Y-67634342D01*
X109066904Y-67634342D02*
X109066904Y-67539104D01*
X109066904Y-67539104D02*
X109114523Y-67443866D01*
X109114523Y-67443866D02*
X109162142Y-67396247D01*
X109162142Y-67396247D02*
X109257380Y-67348628D01*
X109257380Y-67348628D02*
X109447856Y-67301009D01*
X109447856Y-67301009D02*
X109543094Y-67253390D01*
X109543094Y-67253390D02*
X109590713Y-67205771D01*
X109590713Y-67205771D02*
X109638332Y-67110533D01*
X109638332Y-67110533D02*
X109638332Y-67015295D01*
X109638332Y-67015295D02*
X109590713Y-66920057D01*
X109590713Y-66920057D02*
X109543094Y-66872438D01*
X109543094Y-66872438D02*
X109447856Y-66824819D01*
X109447856Y-66824819D02*
X109209761Y-66824819D01*
X109209761Y-66824819D02*
X109066904Y-66872438D01*
X108733570Y-66824819D02*
X108495475Y-67824819D01*
X108495475Y-67824819D02*
X108304999Y-67110533D01*
X108304999Y-67110533D02*
X108114523Y-67824819D01*
X108114523Y-67824819D02*
X107876428Y-66824819D01*
X107066904Y-66824819D02*
X107257380Y-66824819D01*
X107257380Y-66824819D02*
X107352618Y-66872438D01*
X107352618Y-66872438D02*
X107400237Y-66920057D01*
X107400237Y-66920057D02*
X107495475Y-67062914D01*
X107495475Y-67062914D02*
X107543094Y-67253390D01*
X107543094Y-67253390D02*
X107543094Y-67634342D01*
X107543094Y-67634342D02*
X107495475Y-67729580D01*
X107495475Y-67729580D02*
X107447856Y-67777200D01*
X107447856Y-67777200D02*
X107352618Y-67824819D01*
X107352618Y-67824819D02*
X107162142Y-67824819D01*
X107162142Y-67824819D02*
X107066904Y-67777200D01*
X107066904Y-67777200D02*
X107019285Y-67729580D01*
X107019285Y-67729580D02*
X106971666Y-67634342D01*
X106971666Y-67634342D02*
X106971666Y-67396247D01*
X106971666Y-67396247D02*
X107019285Y-67301009D01*
X107019285Y-67301009D02*
X107066904Y-67253390D01*
X107066904Y-67253390D02*
X107162142Y-67205771D01*
X107162142Y-67205771D02*
X107352618Y-67205771D01*
X107352618Y-67205771D02*
X107447856Y-67253390D01*
X107447856Y-67253390D02*
X107495475Y-67301009D01*
X107495475Y-67301009D02*
X107543094Y-67396247D01*
X109638332Y-85027200D02*
X109495475Y-85074819D01*
X109495475Y-85074819D02*
X109257380Y-85074819D01*
X109257380Y-85074819D02*
X109162142Y-85027200D01*
X109162142Y-85027200D02*
X109114523Y-84979580D01*
X109114523Y-84979580D02*
X109066904Y-84884342D01*
X109066904Y-84884342D02*
X109066904Y-84789104D01*
X109066904Y-84789104D02*
X109114523Y-84693866D01*
X109114523Y-84693866D02*
X109162142Y-84646247D01*
X109162142Y-84646247D02*
X109257380Y-84598628D01*
X109257380Y-84598628D02*
X109447856Y-84551009D01*
X109447856Y-84551009D02*
X109543094Y-84503390D01*
X109543094Y-84503390D02*
X109590713Y-84455771D01*
X109590713Y-84455771D02*
X109638332Y-84360533D01*
X109638332Y-84360533D02*
X109638332Y-84265295D01*
X109638332Y-84265295D02*
X109590713Y-84170057D01*
X109590713Y-84170057D02*
X109543094Y-84122438D01*
X109543094Y-84122438D02*
X109447856Y-84074819D01*
X109447856Y-84074819D02*
X109209761Y-84074819D01*
X109209761Y-84074819D02*
X109066904Y-84122438D01*
X108733570Y-84074819D02*
X108495475Y-85074819D01*
X108495475Y-85074819D02*
X108304999Y-84360533D01*
X108304999Y-84360533D02*
X108114523Y-85074819D01*
X108114523Y-85074819D02*
X107876428Y-84074819D01*
X107066904Y-84408152D02*
X107066904Y-85074819D01*
X107304999Y-84027200D02*
X107543094Y-84741485D01*
X107543094Y-84741485D02*
X106924047Y-84741485D01*
X62581904Y-97454819D02*
X62581904Y-96454819D01*
X62581904Y-96931009D02*
X62010476Y-96931009D01*
X62010476Y-97454819D02*
X62010476Y-96454819D01*
X61629523Y-96454819D02*
X60962857Y-96454819D01*
X60962857Y-96454819D02*
X61391428Y-97454819D01*
X80361904Y-97454819D02*
X80361904Y-96454819D01*
X80361904Y-96931009D02*
X79790476Y-96931009D01*
X79790476Y-97454819D02*
X79790476Y-96454819D01*
X79171428Y-96883390D02*
X79266666Y-96835771D01*
X79266666Y-96835771D02*
X79314285Y-96788152D01*
X79314285Y-96788152D02*
X79361904Y-96692914D01*
X79361904Y-96692914D02*
X79361904Y-96645295D01*
X79361904Y-96645295D02*
X79314285Y-96550057D01*
X79314285Y-96550057D02*
X79266666Y-96502438D01*
X79266666Y-96502438D02*
X79171428Y-96454819D01*
X79171428Y-96454819D02*
X78980952Y-96454819D01*
X78980952Y-96454819D02*
X78885714Y-96502438D01*
X78885714Y-96502438D02*
X78838095Y-96550057D01*
X78838095Y-96550057D02*
X78790476Y-96645295D01*
X78790476Y-96645295D02*
X78790476Y-96692914D01*
X78790476Y-96692914D02*
X78838095Y-96788152D01*
X78838095Y-96788152D02*
X78885714Y-96835771D01*
X78885714Y-96835771D02*
X78980952Y-96883390D01*
X78980952Y-96883390D02*
X79171428Y-96883390D01*
X79171428Y-96883390D02*
X79266666Y-96931009D01*
X79266666Y-96931009D02*
X79314285Y-96978628D01*
X79314285Y-96978628D02*
X79361904Y-97073866D01*
X79361904Y-97073866D02*
X79361904Y-97264342D01*
X79361904Y-97264342D02*
X79314285Y-97359580D01*
X79314285Y-97359580D02*
X79266666Y-97407200D01*
X79266666Y-97407200D02*
X79171428Y-97454819D01*
X79171428Y-97454819D02*
X78980952Y-97454819D01*
X78980952Y-97454819D02*
X78885714Y-97407200D01*
X78885714Y-97407200D02*
X78838095Y-97359580D01*
X78838095Y-97359580D02*
X78790476Y-97264342D01*
X78790476Y-97264342D02*
X78790476Y-97073866D01*
X78790476Y-97073866D02*
X78838095Y-96978628D01*
X78838095Y-96978628D02*
X78885714Y-96931009D01*
X78885714Y-96931009D02*
X78980952Y-96883390D01*
%TO.C,SW5*%
X105750000Y-95750000D02*
X105750000Y-96250000D01*
X105750000Y-99850000D02*
X105750000Y-100450000D01*
X105750000Y-100450000D02*
X110250000Y-100450000D01*
X110250000Y-95750000D02*
X105750000Y-95750000D01*
X110250000Y-96450000D02*
X110250000Y-95750000D01*
X110750000Y-100950000D02*
X110750000Y-101950000D01*
X111250000Y-102450000D02*
X110750000Y-101950000D01*
X114250000Y-97950000D02*
X111750000Y-97950000D01*
X114250000Y-102450000D02*
X111250000Y-102450000D01*
X114750000Y-98450000D02*
X114250000Y-97950000D01*
X114750000Y-101950000D02*
X114250000Y-102450000D01*
X110250000Y-100450000D02*
G75*
G02*
X110750000Y-100950000I0J-500000D01*
G01*
X111750000Y-97950000D02*
G75*
G02*
X110250000Y-96450000I0J1500000D01*
G01*
%TO.C,SW6*%
X105750000Y-61250000D02*
X105750000Y-61750000D01*
X105750000Y-65350000D02*
X105750000Y-65950000D01*
X105750000Y-65950000D02*
X110250000Y-65950000D01*
X110250000Y-61250000D02*
X105750000Y-61250000D01*
X110250000Y-61950000D02*
X110250000Y-61250000D01*
X110750000Y-66450000D02*
X110750000Y-67450000D01*
X111250000Y-67950000D02*
X110750000Y-67450000D01*
X114250000Y-63450000D02*
X111750000Y-63450000D01*
X114250000Y-67950000D02*
X111250000Y-67950000D01*
X114750000Y-63950000D02*
X114250000Y-63450000D01*
X114750000Y-67450000D02*
X114250000Y-67950000D01*
X110250000Y-65950000D02*
G75*
G02*
X110750000Y-66450000I0J-500000D01*
G01*
X111750000Y-63450000D02*
G75*
G02*
X110250000Y-61950000I0J1500000D01*
G01*
%TO.C,SW4*%
X105750000Y-78500000D02*
X105750000Y-79000000D01*
X105750000Y-82600000D02*
X105750000Y-83200000D01*
X105750000Y-83200000D02*
X110250000Y-83200000D01*
X110250000Y-78500000D02*
X105750000Y-78500000D01*
X110250000Y-79200000D02*
X110250000Y-78500000D01*
X110750000Y-83700000D02*
X110750000Y-84700000D01*
X111250000Y-85200000D02*
X110750000Y-84700000D01*
X114250000Y-80700000D02*
X111750000Y-80700000D01*
X114250000Y-85200000D02*
X111250000Y-85200000D01*
X114750000Y-81200000D02*
X114250000Y-80700000D01*
X114750000Y-84700000D02*
X114250000Y-85200000D01*
X110250000Y-83200000D02*
G75*
G02*
X110750000Y-83700000I0J-500000D01*
G01*
X111750000Y-80700000D02*
G75*
G02*
X110250000Y-79200000I0J1500000D01*
G01*
%TD*%
M02*
