%TF.GenerationSoftware,KiCad,Pcbnew,9.0.6*%
%TF.CreationDate,2025-12-14T01:17:05-08:00*%
%TF.ProjectId,base-station,62617365-2d73-4746-9174-696f6e2e6b69,rev?*%
%TF.SameCoordinates,Original*%
%TF.FileFunction,Copper,L1,Top*%
%TF.FilePolarity,Positive*%
%FSLAX46Y46*%
G04 Gerber Fmt 4.6, Leading zero omitted, Abs format (unit mm)*
G04 Created by KiCad (PCBNEW 9.0.6) date 2025-12-14 01:17:05*
%MOMM*%
%LPD*%
G01*
G04 APERTURE LIST*
G04 Aperture macros list*
%AMRoundRect*
0 Rectangle with rounded corners*
0 $1 Rounding radius*
0 $2 $3 $4 $5 $6 $7 $8 $9 X,Y pos of 4 corners*
0 Add a 4 corners polygon primitive as box body*
4,1,4,$2,$3,$4,$5,$6,$7,$8,$9,$2,$3,0*
0 Add four circle primitives for the rounded corners*
1,1,$1+$1,$2,$3*
1,1,$1+$1,$4,$5*
1,1,$1+$1,$6,$7*
1,1,$1+$1,$8,$9*
0 Add four rect primitives between the rounded corners*
20,1,$1+$1,$2,$3,$4,$5,0*
20,1,$1+$1,$4,$5,$6,$7,0*
20,1,$1+$1,$6,$7,$8,$9,0*
20,1,$1+$1,$8,$9,$2,$3,0*%
G04 Aperture macros list end*
%TA.AperFunction,SMDPad,CuDef*%
%ADD10RoundRect,0.162500X-0.650000X-0.162500X0.650000X-0.162500X0.650000X0.162500X-0.650000X0.162500X0*%
%TD*%
%TA.AperFunction,SMDPad,CuDef*%
%ADD11C,1.000000*%
%TD*%
%TA.AperFunction,SMDPad,CuDef*%
%ADD12RoundRect,0.140000X-0.140000X-0.170000X0.140000X-0.170000X0.140000X0.170000X-0.140000X0.170000X0*%
%TD*%
%TA.AperFunction,SMDPad,CuDef*%
%ADD13R,1.000000X0.800000*%
%TD*%
%TA.AperFunction,SMDPad,CuDef*%
%ADD14R,0.700000X1.500000*%
%TD*%
%TA.AperFunction,ComponentPad*%
%ADD15RoundRect,0.250000X-0.625000X0.350000X-0.625000X-0.350000X0.625000X-0.350000X0.625000X0.350000X0*%
%TD*%
%TA.AperFunction,ComponentPad*%
%ADD16O,1.750000X1.200000*%
%TD*%
%TA.AperFunction,SMDPad,CuDef*%
%ADD17RoundRect,0.140000X-0.170000X0.140000X-0.170000X-0.140000X0.170000X-0.140000X0.170000X0.140000X0*%
%TD*%
%TA.AperFunction,SMDPad,CuDef*%
%ADD18RoundRect,0.250000X0.450000X-0.262500X0.450000X0.262500X-0.450000X0.262500X-0.450000X-0.262500X0*%
%TD*%
%TA.AperFunction,SMDPad,CuDef*%
%ADD19RoundRect,0.150000X-0.512500X-0.150000X0.512500X-0.150000X0.512500X0.150000X-0.512500X0.150000X0*%
%TD*%
%TA.AperFunction,SMDPad,CuDef*%
%ADD20RoundRect,0.140000X0.170000X-0.140000X0.170000X0.140000X-0.170000X0.140000X-0.170000X-0.140000X0*%
%TD*%
%TA.AperFunction,SMDPad,CuDef*%
%ADD21RoundRect,0.250000X-0.350000X0.450000X-0.350000X-0.450000X0.350000X-0.450000X0.350000X0.450000X0*%
%TD*%
%TA.AperFunction,ComponentPad*%
%ADD22C,2.032000*%
%TD*%
%TA.AperFunction,SMDPad,CuDef*%
%ADD23RoundRect,0.200000X-0.200000X-0.275000X0.200000X-0.275000X0.200000X0.275000X-0.200000X0.275000X0*%
%TD*%
%TA.AperFunction,SMDPad,CuDef*%
%ADD24R,1.450000X0.600000*%
%TD*%
%TA.AperFunction,SMDPad,CuDef*%
%ADD25R,1.450000X0.300000*%
%TD*%
%TA.AperFunction,HeatsinkPad*%
%ADD26O,2.100000X1.000000*%
%TD*%
%TA.AperFunction,HeatsinkPad*%
%ADD27O,1.600000X1.000000*%
%TD*%
%TA.AperFunction,ComponentPad*%
%ADD28R,1.700000X1.700000*%
%TD*%
%TA.AperFunction,ComponentPad*%
%ADD29C,1.700000*%
%TD*%
%TA.AperFunction,SMDPad,CuDef*%
%ADD30RoundRect,0.243750X-0.243750X-0.456250X0.243750X-0.456250X0.243750X0.456250X-0.243750X0.456250X0*%
%TD*%
%TA.AperFunction,SMDPad,CuDef*%
%ADD31RoundRect,0.200000X0.275000X-0.200000X0.275000X0.200000X-0.275000X0.200000X-0.275000X-0.200000X0*%
%TD*%
%TA.AperFunction,SMDPad,CuDef*%
%ADD32RoundRect,0.218750X0.381250X-0.218750X0.381250X0.218750X-0.381250X0.218750X-0.381250X-0.218750X0*%
%TD*%
%TA.AperFunction,SMDPad,CuDef*%
%ADD33RoundRect,0.218750X0.218750X0.381250X-0.218750X0.381250X-0.218750X-0.381250X0.218750X-0.381250X0*%
%TD*%
%TA.AperFunction,SMDPad,CuDef*%
%ADD34RoundRect,0.250000X-0.262500X-0.450000X0.262500X-0.450000X0.262500X0.450000X-0.262500X0.450000X0*%
%TD*%
%TA.AperFunction,SMDPad,CuDef*%
%ADD35RoundRect,0.250000X0.262500X0.450000X-0.262500X0.450000X-0.262500X-0.450000X0.262500X-0.450000X0*%
%TD*%
%TA.AperFunction,SMDPad,CuDef*%
%ADD36R,0.900000X1.000000*%
%TD*%
%TA.AperFunction,SMDPad,CuDef*%
%ADD37RoundRect,0.125000X-0.625000X-0.125000X0.625000X-0.125000X0.625000X0.125000X-0.625000X0.125000X0*%
%TD*%
%TA.AperFunction,SMDPad,CuDef*%
%ADD38RoundRect,0.125000X-0.125000X-0.625000X0.125000X-0.625000X0.125000X0.625000X-0.125000X0.625000X0*%
%TD*%
%TA.AperFunction,ViaPad*%
%ADD39C,0.600000*%
%TD*%
%TA.AperFunction,Conductor*%
%ADD40C,0.300000*%
%TD*%
%TA.AperFunction,Conductor*%
%ADD41C,0.500000*%
%TD*%
G04 APERTURE END LIST*
D10*
%TO.P,U3,1,~{CS}*%
%TO.N,/FLASH_CS*%
X86112500Y-58695000D03*
%TO.P,U3,2,DO/IO_{1}*%
%TO.N,/FLASH_MISO*%
X86112500Y-59965000D03*
%TO.P,U3,3,~{WP}/IO_{2}*%
%TO.N,+3V3*%
X86112500Y-61235000D03*
%TO.P,U3,4,GND*%
%TO.N,GND*%
X86112500Y-62505000D03*
%TO.P,U3,5,DI/IO_{0}*%
%TO.N,/FLASH_MOSI*%
X93287500Y-62505000D03*
%TO.P,U3,6,CLK*%
%TO.N,/FLASH_SCK*%
X93287500Y-61235000D03*
%TO.P,U3,7,~{HOLD}/~{RESET}/IO_{3}*%
%TO.N,+3V3*%
X93287500Y-59965000D03*
%TO.P,U3,8,VCC*%
X93287500Y-58695000D03*
%TD*%
D11*
%TO.P,FID3,*%
%TO.N,*%
X44500000Y-93500000D03*
%TD*%
D12*
%TO.P,C10,1*%
%TO.N,+3.3VA*%
X94820000Y-76875000D03*
%TO.P,C10,2*%
%TO.N,GND*%
X95780000Y-76875000D03*
%TD*%
D13*
%TO.P,SW3,*%
%TO.N,*%
X44550000Y-100745000D03*
X44550000Y-102955000D03*
X51850000Y-100745000D03*
X51850000Y-102955000D03*
D14*
%TO.P,SW3,1,A*%
%TO.N,GND*%
X45950000Y-100095000D03*
%TO.P,SW3,2,B*%
%TO.N,/SW_BOOT*%
X48950000Y-100095000D03*
%TO.P,SW3,3,C*%
%TO.N,+3V3*%
X50450000Y-100095000D03*
%TD*%
D15*
%TO.P,J4,1,Pin_1*%
%TO.N,/VBAT*%
X39650000Y-87000000D03*
D16*
%TO.P,J4,2,Pin_2*%
%TO.N,GND*%
X39650000Y-89000000D03*
%TD*%
D17*
%TO.P,C2,1*%
%TO.N,/VBAT*%
X85000000Y-95020000D03*
%TO.P,C2,2*%
%TO.N,GND*%
X85000000Y-95980000D03*
%TD*%
D12*
%TO.P,C7,1*%
%TO.N,+3V3*%
X98720000Y-74975000D03*
%TO.P,C7,2*%
%TO.N,GND*%
X99680000Y-74975000D03*
%TD*%
D18*
%TO.P,R5,1*%
%TO.N,/SW_BOOT*%
X48700000Y-97912500D03*
%TO.P,R5,2*%
%TO.N,/BOOT*%
X48700000Y-96087500D03*
%TD*%
D19*
%TO.P,U2,1,VIN*%
%TO.N,/VIN*%
X85262500Y-84350000D03*
%TO.P,U2,2,GND*%
%TO.N,GND*%
X85262500Y-85300000D03*
%TO.P,U2,3,EN*%
%TO.N,/VIN*%
X85262500Y-86250000D03*
%TO.P,U2,4,NC*%
%TO.N,unconnected-(U2-NC-Pad4)*%
X87537500Y-86250000D03*
%TO.P,U2,5,VOUT*%
%TO.N,+3V3*%
X87537500Y-84350000D03*
%TD*%
D17*
%TO.P,C1,1*%
%TO.N,VBUS*%
X90400000Y-94900000D03*
%TO.P,C1,2*%
%TO.N,GND*%
X90400000Y-95860000D03*
%TD*%
D20*
%TO.P,C13,1*%
%TO.N,/SW_RESET*%
X58180000Y-99180000D03*
%TO.P,C13,2*%
%TO.N,GND*%
X58180000Y-98220000D03*
%TD*%
D21*
%TO.P,Y1,1,1*%
%TO.N,/HSE_IN*%
X82650000Y-68075000D03*
%TO.P,Y1,2,2*%
%TO.N,GND*%
X82650000Y-70275000D03*
%TO.P,Y1,3,3*%
%TO.N,/HSE_OUT*%
X84350000Y-70275000D03*
%TO.P,Y1,4,4*%
%TO.N,GND*%
X84350000Y-68075000D03*
%TD*%
D22*
%TO.P,SW5,1,1*%
%TO.N,GND*%
X112750000Y-88350000D03*
%TO.P,SW5,2,2*%
%TO.N,/BTN_2*%
X117750000Y-90450000D03*
%TD*%
D23*
%TO.P,R2,1*%
%TO.N,/CC2*%
X45375000Y-79400000D03*
%TO.P,R2,2*%
%TO.N,GND*%
X47025000Y-79400000D03*
%TD*%
D11*
%TO.P,FID2,*%
%TO.N,*%
X37600000Y-65500000D03*
%TD*%
D24*
%TO.P,J2,A1,GND*%
%TO.N,GND*%
X40800000Y-73750000D03*
%TO.P,J2,A4,VBUS*%
%TO.N,VBUS*%
X40800000Y-74550000D03*
D25*
%TO.P,J2,A5,CC1*%
%TO.N,/CC1*%
X40800000Y-75750000D03*
%TO.P,J2,A6,D+*%
%TO.N,/D+*%
X40800000Y-76750000D03*
%TO.P,J2,A7,D-*%
%TO.N,/D-*%
X40800000Y-77250000D03*
%TO.P,J2,A8,SBU1*%
%TO.N,unconnected-(J2-SBU1-PadA8)*%
X40800000Y-78250000D03*
D24*
%TO.P,J2,A9,VBUS*%
%TO.N,VBUS*%
X40800000Y-79450000D03*
%TO.P,J2,A12,GND*%
%TO.N,GND*%
X40800000Y-80250000D03*
%TO.P,J2,B1,GND*%
X40800000Y-80250000D03*
%TO.P,J2,B4,VBUS*%
%TO.N,VBUS*%
X40800000Y-79450000D03*
D25*
%TO.P,J2,B5,CC2*%
%TO.N,/CC2*%
X40800000Y-78750000D03*
%TO.P,J2,B6,D+*%
%TO.N,/D+*%
X40800000Y-77750000D03*
%TO.P,J2,B7,D-*%
%TO.N,/D-*%
X40800000Y-76250000D03*
%TO.P,J2,B8,SBU2*%
%TO.N,unconnected-(J2-SBU2-PadB8)*%
X40800000Y-75250000D03*
D24*
%TO.P,J2,B9,VBUS*%
%TO.N,VBUS*%
X40800000Y-74550000D03*
%TO.P,J2,B12,GND*%
%TO.N,GND*%
X40800000Y-73750000D03*
D26*
%TO.P,J2,S1,SHIELD*%
%TO.N,/SHIELD*%
X39885000Y-72680000D03*
D27*
X35705000Y-72680000D03*
D26*
X39885000Y-81320000D03*
D27*
X35705000Y-81320000D03*
%TD*%
D28*
%TO.P,J3,1,Pin_1*%
%TO.N,+3V3*%
X68900000Y-52900000D03*
D29*
%TO.P,J3,2,Pin_2*%
%TO.N,GND*%
X66360000Y-52900000D03*
%TO.P,J3,3,Pin_3*%
%TO.N,/LCD_SDA*%
X63820000Y-52900000D03*
%TO.P,J3,4,Pin_4*%
%TO.N,/LCD_SCK*%
X61280000Y-52900000D03*
%TO.P,J3,5,Pin_5*%
%TO.N,/LCD_CS*%
X58740000Y-52900000D03*
%TO.P,J3,6,Pin_6*%
%TO.N,/LCD_DC*%
X56200000Y-52900000D03*
%TO.P,J3,7,Pin_7*%
%TO.N,/LCD_RST*%
X53660000Y-52900000D03*
%TO.P,J3,8,Pin_8*%
%TO.N,/LCD_BL*%
X51120000Y-52900000D03*
%TD*%
D11*
%TO.P,FID1,*%
%TO.N,*%
X98000000Y-85900000D03*
%TD*%
D28*
%TO.P,J5,1,Pin_1*%
%TO.N,/SWDIO*%
X90375000Y-52900000D03*
D29*
%TO.P,J5,2,Pin_2*%
%TO.N,/SWCLK*%
X87835000Y-52900000D03*
%TD*%
D22*
%TO.P,SW6,1,1*%
%TO.N,GND*%
X112750000Y-53850000D03*
%TO.P,SW6,2,2*%
%TO.N,/BTN_3*%
X117750000Y-55950000D03*
%TD*%
D19*
%TO.P,U1,1,STAT*%
%TO.N,/STAT*%
X86562500Y-92850000D03*
%TO.P,U1,2,V_{SS}*%
%TO.N,GND*%
X86562500Y-93800000D03*
%TO.P,U1,3,V_{BAT}*%
%TO.N,/VBAT*%
X86562500Y-94750000D03*
%TO.P,U1,4,V_{DD}*%
%TO.N,VBUS*%
X88837500Y-94750000D03*
%TO.P,U1,5,PROG*%
%TO.N,/PROG*%
X88837500Y-92850000D03*
%TD*%
D30*
%TO.P,D1,1,K*%
%TO.N,/LED*%
X82562500Y-90700000D03*
%TO.P,D1,2,A*%
%TO.N,VBUS*%
X84437500Y-90700000D03*
%TD*%
D31*
%TO.P,R1,1*%
%TO.N,/CC1*%
X44700000Y-75025000D03*
%TO.P,R1,2*%
%TO.N,GND*%
X44700000Y-73375000D03*
%TD*%
D32*
%TO.P,FB2,1*%
%TO.N,+3V3*%
X93100000Y-80837500D03*
%TO.P,FB2,2*%
%TO.N,+3.3VA*%
X93100000Y-78712500D03*
%TD*%
D20*
%TO.P,C11,1*%
%TO.N,/HSE_IN*%
X86100000Y-68155000D03*
%TO.P,C11,2*%
%TO.N,GND*%
X86100000Y-67195000D03*
%TD*%
D17*
%TO.P,C12,1*%
%TO.N,/HSE_OUT*%
X86100000Y-70295000D03*
%TO.P,C12,2*%
%TO.N,GND*%
X86100000Y-71255000D03*
%TD*%
D33*
%TO.P,FB1,1*%
%TO.N,GND*%
X41762500Y-83400000D03*
%TO.P,FB1,2*%
%TO.N,/SHIELD*%
X39637500Y-83400000D03*
%TD*%
D12*
%TO.P,C8,1*%
%TO.N,+3V3*%
X94520000Y-80975000D03*
%TO.P,C8,2*%
%TO.N,GND*%
X95480000Y-80975000D03*
%TD*%
D22*
%TO.P,SW4,1,1*%
%TO.N,GND*%
X112750000Y-71100000D03*
%TO.P,SW4,2,2*%
%TO.N,/BTN_1*%
X117750000Y-73200000D03*
%TD*%
D20*
%TO.P,C3,1*%
%TO.N,/VIN*%
X83700000Y-83280000D03*
%TO.P,C3,2*%
%TO.N,GND*%
X83700000Y-82320000D03*
%TD*%
%TO.P,C4,1*%
%TO.N,+3V3*%
X89200000Y-84280000D03*
%TO.P,C4,2*%
%TO.N,GND*%
X89200000Y-83320000D03*
%TD*%
D34*
%TO.P,R4,1*%
%TO.N,/PROG*%
X90787500Y-92300000D03*
%TO.P,R4,2*%
%TO.N,GND*%
X92612500Y-92300000D03*
%TD*%
D13*
%TO.P,SW2,*%
%TO.N,*%
X80950000Y-53680000D03*
X80950000Y-51470000D03*
X73650000Y-53680000D03*
X73650000Y-51470000D03*
D14*
%TO.P,SW2,1,A*%
%TO.N,/VBAT*%
X79550000Y-54330000D03*
%TO.P,SW2,2,B*%
%TO.N,/VIN*%
X76550000Y-54330000D03*
%TO.P,SW2,3,C*%
%TO.N,unconnected-(SW2-C-Pad3)*%
X75050000Y-54330000D03*
%TD*%
D12*
%TO.P,C9,1*%
%TO.N,+3.3VA*%
X94820000Y-78475000D03*
%TO.P,C9,2*%
%TO.N,GND*%
X95780000Y-78475000D03*
%TD*%
D35*
%TO.P,R3,1*%
%TO.N,/STAT*%
X84412500Y-93100000D03*
%TO.P,R3,2*%
%TO.N,/LED*%
X82587500Y-93100000D03*
%TD*%
D20*
%TO.P,C6,1*%
%TO.N,+3V3*%
X87700000Y-67055000D03*
%TO.P,C6,2*%
%TO.N,GND*%
X87700000Y-66095000D03*
%TD*%
D36*
%TO.P,SW1,1,1*%
%TO.N,/SW_RESET*%
X53850000Y-101100000D03*
X57950000Y-101100000D03*
%TO.P,SW1,2,2*%
%TO.N,/RESET*%
X53850000Y-102700000D03*
X57950000Y-102700000D03*
%TD*%
D37*
%TO.P,U4,1,VDD*%
%TO.N,+3V3*%
X88575000Y-68175000D03*
%TO.P,U4,2,PF0*%
%TO.N,/HSE_IN*%
X88575000Y-68975000D03*
%TO.P,U4,3,PF1*%
%TO.N,/HSE_OUT*%
X88575000Y-69775000D03*
%TO.P,U4,4,PG10*%
%TO.N,/RESET*%
X88575000Y-70575000D03*
%TO.P,U4,5,PA0*%
%TO.N,/BTN_1*%
X88575000Y-71375000D03*
%TO.P,U4,6,PA1*%
%TO.N,/BTN_2*%
X88575000Y-72175000D03*
%TO.P,U4,7,PA2*%
%TO.N,/BTN_3*%
X88575000Y-72975000D03*
%TO.P,U4,8,PA3*%
%TO.N,/LCD_RST*%
X88575000Y-73775000D03*
D38*
%TO.P,U4,9,PA4*%
%TO.N,/LCD_CS*%
X89950000Y-75150000D03*
%TO.P,U4,10,PA5*%
%TO.N,/LCD_SCK*%
X90750000Y-75150000D03*
%TO.P,U4,11,PA6*%
%TO.N,/LCD_BL*%
X91550000Y-75150000D03*
%TO.P,U4,12,PA7*%
%TO.N,/LCD_SDA*%
X92350000Y-75150000D03*
%TO.P,U4,13,PB0*%
%TO.N,unconnected-(U4-PB0-Pad13)*%
X93150000Y-75150000D03*
%TO.P,U4,14,VSSA*%
%TO.N,GND*%
X93950000Y-75150000D03*
%TO.P,U4,15,VDDA*%
%TO.N,+3.3VA*%
X94750000Y-75150000D03*
%TO.P,U4,16,VSS*%
%TO.N,GND*%
X95550000Y-75150000D03*
D37*
%TO.P,U4,17,VDD*%
%TO.N,+3V3*%
X96925000Y-73775000D03*
%TO.P,U4,18,PA8*%
%TO.N,/LCD_DC*%
X96925000Y-72975000D03*
%TO.P,U4,19,PA9*%
%TO.N,/I2C_SCL*%
X96925000Y-72175000D03*
%TO.P,U4,20,PA10*%
%TO.N,/I2C_SDA*%
X96925000Y-71375000D03*
%TO.P,U4,21,PA11*%
%TO.N,/D-*%
X96925000Y-70575000D03*
%TO.P,U4,22,PA12*%
%TO.N,/D+*%
X96925000Y-69775000D03*
%TO.P,U4,23,PA13*%
%TO.N,/SWDIO*%
X96925000Y-68975000D03*
%TO.P,U4,24,PA14*%
%TO.N,/SWCLK*%
X96925000Y-68175000D03*
D38*
%TO.P,U4,25,PA15*%
%TO.N,unconnected-(U4-PA15-Pad25)*%
X95550000Y-66800000D03*
%TO.P,U4,26,PB3*%
%TO.N,/FLASH_SCK*%
X94750000Y-66800000D03*
%TO.P,U4,27,PB4*%
%TO.N,/FLASH_MISO*%
X93950000Y-66800000D03*
%TO.P,U4,28,PB5*%
%TO.N,/FLASH_MOSI*%
X93150000Y-66800000D03*
%TO.P,U4,29,PB6*%
%TO.N,/FLASH_CS*%
X92350000Y-66800000D03*
%TO.P,U4,30,PB7*%
%TO.N,unconnected-(U4-PB7-Pad30)*%
X91550000Y-66800000D03*
%TO.P,U4,31,PB8*%
%TO.N,/BOOT*%
X90750000Y-66800000D03*
%TO.P,U4,32,VSS*%
%TO.N,GND*%
X89950000Y-66800000D03*
%TD*%
D12*
%TO.P,C5,1*%
%TO.N,+3V3*%
X98720000Y-73775000D03*
%TO.P,C5,2*%
%TO.N,GND*%
X99680000Y-73775000D03*
%TD*%
D39*
%TO.N,+3V3*%
X91750000Y-60500000D03*
X91500000Y-59250000D03*
X84500000Y-61750000D03*
%TO.N,GND*%
X84500000Y-63000000D03*
X117300000Y-102100000D03*
X112200000Y-86900000D03*
X42400000Y-80900000D03*
X90200000Y-68200000D03*
X89300000Y-96100000D03*
X90300000Y-82900000D03*
X42300000Y-84600000D03*
X117000000Y-84700000D03*
X95300000Y-73700000D03*
X88000000Y-93800000D03*
X81300000Y-70600000D03*
X59300000Y-98300000D03*
X64100000Y-97500000D03*
X93800000Y-73700000D03*
X112200000Y-52000000D03*
X100700000Y-73600000D03*
X96300000Y-81200000D03*
X83800000Y-96300000D03*
X116800000Y-67600000D03*
X85500000Y-71900000D03*
X83800000Y-85400000D03*
X86100000Y-66300000D03*
X44000000Y-72200000D03*
X47000000Y-98600000D03*
X41900000Y-89400000D03*
X84600000Y-81700000D03*
X48000000Y-80400000D03*
X111900000Y-69400000D03*
%TO.N,/VBAT*%
X69200000Y-86500000D03*
X70500000Y-66200000D03*
X86000000Y-96000000D03*
X73800000Y-56600000D03*
X77400000Y-97200000D03*
X64800000Y-71900000D03*
%TO.N,+3V3*%
X92300000Y-81900000D03*
X74200000Y-97400000D03*
X50300000Y-98600000D03*
X87047727Y-67637056D03*
X97600000Y-75500000D03*
X89600000Y-85100000D03*
X68400000Y-55300000D03*
%TO.N,/RESET*%
X59800000Y-101100000D03*
X76000000Y-83500000D03*
X83900000Y-74500000D03*
X89900000Y-71300000D03*
%TO.N,/I2C_SDA*%
X74300000Y-101800000D03*
X99000000Y-71600000D03*
X100400000Y-90500000D03*
%TO.N,/I2C_SCL*%
X98400000Y-72300000D03*
X74400000Y-100800000D03*
X99700000Y-89700000D03*
%TO.N,/D-*%
X100600000Y-70300000D03*
X44900000Y-76700000D03*
X82400000Y-64100000D03*
X62100000Y-72700000D03*
%TO.N,/D+*%
X99800000Y-67500000D03*
X81800000Y-74100000D03*
%TO.N,/LCD_CS*%
X67500000Y-83400000D03*
X74400000Y-86900000D03*
X77100000Y-84600000D03*
X83100000Y-86700000D03*
X61200000Y-69900000D03*
X58600000Y-55600000D03*
X60800000Y-64900000D03*
X87000000Y-76300000D03*
%TO.N,/LCD_SDA*%
X88400000Y-78000003D03*
X76900000Y-71600000D03*
%TO.N,/LCD_SCK*%
X89701000Y-76500000D03*
X65300000Y-62800000D03*
X83300000Y-77400000D03*
X85400000Y-79600000D03*
%TO.N,/LCD_DC*%
X101800000Y-71000000D03*
X58100000Y-57400000D03*
X65300000Y-57400000D03*
X78400000Y-57400000D03*
%TO.N,/LCD_BL*%
X81600000Y-79800000D03*
X84500000Y-79300000D03*
X88400000Y-77200000D03*
X63000000Y-63600000D03*
%TO.N,/LCD_RST*%
X53600000Y-60600000D03*
X86700000Y-75400000D03*
%TO.N,/BOOT*%
X50600000Y-96000000D03*
X90900000Y-73200000D03*
%TO.N,/BTN_1*%
X84600000Y-75200000D03*
%TO.N,/BTN_2*%
X91550000Y-84500000D03*
%TO.N,/BTN_3*%
X103800000Y-67600000D03*
%TO.N,/FLASH_MISO*%
X96800000Y-63500000D03*
X89800000Y-61500000D03*
%TO.N,/VIN*%
X81800000Y-84400000D03*
X76500000Y-55800000D03*
%TD*%
D40*
%TO.N,/SWCLK*%
X96925000Y-68175000D02*
X98201000Y-66899000D01*
X98201000Y-66899000D02*
X98201000Y-62601000D01*
X98201000Y-62601000D02*
X98100000Y-62500000D01*
X98100000Y-62500000D02*
X98100000Y-61864673D01*
X98100000Y-61864673D02*
X91835327Y-55600000D01*
X91835327Y-55600000D02*
X88800000Y-55600000D01*
X88800000Y-55600000D02*
X87835000Y-54635000D01*
X87835000Y-54635000D02*
X87835000Y-52900000D01*
D41*
%TO.N,+3V3*%
X92285000Y-59965000D02*
X91750000Y-60500000D01*
X93287500Y-59965000D02*
X92285000Y-59965000D01*
X92055000Y-58695000D02*
X91500000Y-59250000D01*
X93287500Y-58695000D02*
X92055000Y-58695000D01*
X85015000Y-61235000D02*
X84500000Y-61750000D01*
X86112500Y-61235000D02*
X85015000Y-61235000D01*
%TO.N,GND*%
X84995000Y-62505000D02*
X84500000Y-63000000D01*
X86112500Y-62505000D02*
X84995000Y-62505000D01*
D40*
%TO.N,/FLASH_CS*%
X92350000Y-66800000D02*
X92350000Y-64970654D01*
X92350000Y-64970654D02*
X90500000Y-63120654D01*
X90500000Y-63120654D02*
X90500000Y-59900000D01*
X90500000Y-59900000D02*
X89295000Y-58695000D01*
X89295000Y-58695000D02*
X86112500Y-58695000D01*
%TO.N,/FLASH_MISO*%
X89800000Y-61500000D02*
X88265000Y-59965000D01*
X88265000Y-59965000D02*
X86112500Y-59965000D01*
%TO.N,/FLASH_MOSI*%
X95505000Y-62505000D02*
X93287500Y-62505000D01*
%TO.N,/FLASH_SCK*%
X95735000Y-61235000D02*
X93287500Y-61235000D01*
D41*
%TO.N,VBUS*%
X88837500Y-94750000D02*
X90250000Y-94750000D01*
X80900000Y-90100000D02*
X80900000Y-95900000D01*
D40*
X37864000Y-79164000D02*
X39724000Y-79164000D01*
D41*
X88300000Y-95287500D02*
X88837500Y-94750000D01*
D40*
X40010000Y-79450000D02*
X40800000Y-79450000D01*
D41*
X78300000Y-87500000D02*
X80900000Y-90100000D01*
D40*
X42250000Y-79450000D02*
X44300000Y-81500000D01*
D41*
X72300000Y-81500000D02*
X78300000Y-87500000D01*
D40*
X39591719Y-74900000D02*
X38400000Y-74900000D01*
X40800000Y-79450000D02*
X42250000Y-79450000D01*
X40800000Y-74550000D02*
X39941719Y-74550000D01*
X38400000Y-74900000D02*
X37400000Y-75900000D01*
X37400000Y-78700000D02*
X37864000Y-79164000D01*
D41*
X80900000Y-95900000D02*
X82600000Y-97600000D01*
X84437500Y-88237500D02*
X84437500Y-90700000D01*
X90250000Y-94750000D02*
X90400000Y-94900000D01*
D40*
X37400000Y-75900000D02*
X37400000Y-78700000D01*
D41*
X82600000Y-97600000D02*
X87400000Y-97600000D01*
X83700000Y-87500000D02*
X84437500Y-88237500D01*
D40*
X39724000Y-79164000D02*
X40010000Y-79450000D01*
D41*
X88300000Y-96700000D02*
X88300000Y-95287500D01*
X47500000Y-81500000D02*
X72300000Y-81500000D01*
X78300000Y-87500000D02*
X83700000Y-87500000D01*
D40*
X44300000Y-81500000D02*
X47500000Y-81500000D01*
D41*
X87400000Y-97600000D02*
X88300000Y-96700000D01*
D40*
X39941719Y-74550000D02*
X39591719Y-74900000D01*
D41*
%TO.N,GND*%
X45950000Y-100095000D02*
X45950000Y-99650000D01*
X83900000Y-85300000D02*
X83800000Y-85400000D01*
X59220000Y-98220000D02*
X59300000Y-98300000D01*
X85500000Y-71900000D02*
X85500000Y-71400000D01*
X58180000Y-98220000D02*
X59220000Y-98220000D01*
X83700000Y-82320000D02*
X83980000Y-82320000D01*
X90400000Y-95860000D02*
X89540000Y-95860000D01*
X82650000Y-70275000D02*
X81625000Y-70275000D01*
X112750000Y-53850000D02*
X112750000Y-52550000D01*
X96075000Y-80975000D02*
X96300000Y-81200000D01*
X90200000Y-68200000D02*
X89950000Y-67950000D01*
X89950000Y-66800000D02*
X89300000Y-66800000D01*
X86100000Y-67195000D02*
X85230000Y-67195000D01*
X41750000Y-80250000D02*
X42400000Y-80900000D01*
X92612500Y-94887500D02*
X92612500Y-92300000D01*
X91640000Y-95860000D02*
X92612500Y-94887500D01*
X85000000Y-95980000D02*
X84120000Y-95980000D01*
X42500000Y-73200000D02*
X44525000Y-73200000D01*
X41950000Y-73750000D02*
X42500000Y-73200000D01*
X85230000Y-67195000D02*
X84350000Y-68075000D01*
X95550000Y-73950000D02*
X95300000Y-73700000D01*
X95550000Y-75150000D02*
X95550000Y-73950000D01*
X44700000Y-73375000D02*
X44700000Y-72900000D01*
X85500000Y-71400000D02*
X85645000Y-71255000D01*
X41762500Y-83400000D02*
X41762500Y-84062500D01*
X95780000Y-76875000D02*
X95780000Y-78475000D01*
X47025000Y-79400000D02*
X47025000Y-79425000D01*
X41762500Y-84062500D02*
X42300000Y-84600000D01*
X112750000Y-52550000D02*
X112200000Y-52000000D01*
X112750000Y-70250000D02*
X111900000Y-69400000D01*
X44525000Y-73200000D02*
X44700000Y-73375000D01*
X88595000Y-66095000D02*
X87900000Y-66095000D01*
X112750000Y-71100000D02*
X112750000Y-70250000D01*
X99680000Y-73775000D02*
X100525000Y-73775000D01*
X95550000Y-75150000D02*
X95900000Y-75500000D01*
X86100000Y-67195000D02*
X86100000Y-66300000D01*
X44700000Y-72900000D02*
X44000000Y-72200000D01*
X99680000Y-74975000D02*
X99680000Y-73775000D01*
X84120000Y-95980000D02*
X83800000Y-96300000D01*
X81625000Y-70275000D02*
X81300000Y-70600000D01*
X89200000Y-83320000D02*
X89880000Y-83320000D01*
X112750000Y-88350000D02*
X112750000Y-87450000D01*
X112750000Y-87450000D02*
X112200000Y-86900000D01*
X45950000Y-99650000D02*
X47000000Y-98600000D01*
X90400000Y-95860000D02*
X91640000Y-95860000D01*
X95780000Y-76320000D02*
X95780000Y-76875000D01*
X95900000Y-75500000D02*
X95900000Y-76200000D01*
X89880000Y-83320000D02*
X90300000Y-82900000D01*
X93950000Y-75150000D02*
X93950000Y-73850000D01*
X40800000Y-73750000D02*
X41950000Y-73750000D01*
X47025000Y-79425000D02*
X48000000Y-80400000D01*
X39650000Y-89000000D02*
X41500000Y-89000000D01*
X86562500Y-93800000D02*
X88000000Y-93800000D01*
X95900000Y-76200000D02*
X95780000Y-76320000D01*
X85645000Y-71255000D02*
X86100000Y-71255000D01*
X93950000Y-73850000D02*
X93800000Y-73700000D01*
X85262500Y-85300000D02*
X83900000Y-85300000D01*
X89300000Y-66800000D02*
X88595000Y-66095000D01*
X41500000Y-89000000D02*
X41900000Y-89400000D01*
X95480000Y-80975000D02*
X96075000Y-80975000D01*
X83980000Y-82320000D02*
X84600000Y-81700000D01*
X40800000Y-80250000D02*
X41750000Y-80250000D01*
X100525000Y-73775000D02*
X100700000Y-73600000D01*
X89540000Y-95860000D02*
X89300000Y-96100000D01*
X89950000Y-67950000D02*
X89950000Y-66800000D01*
%TO.N,/VBAT*%
X85270000Y-94750000D02*
X85000000Y-95020000D01*
D40*
X77900000Y-56500000D02*
X78100000Y-56500000D01*
X70500000Y-66200000D02*
X64800000Y-71900000D01*
X77800000Y-56600000D02*
X77900000Y-56500000D01*
D41*
X86562500Y-95437500D02*
X86000000Y-96000000D01*
D40*
X73800000Y-56600000D02*
X77800000Y-56600000D01*
X69200000Y-86500000D02*
X69200000Y-86700000D01*
X78300000Y-56200000D02*
X79550000Y-54950000D01*
X69200000Y-86700000D02*
X68050000Y-87850000D01*
X78100000Y-56500000D02*
X78300000Y-56300000D01*
D41*
X77400000Y-97200000D02*
X68050000Y-87850000D01*
X86562500Y-94750000D02*
X85270000Y-94750000D01*
X67200000Y-87000000D02*
X39650000Y-87000000D01*
D40*
X78300000Y-56300000D02*
X78300000Y-56200000D01*
X79550000Y-54950000D02*
X79550000Y-54330000D01*
D41*
X86562500Y-94750000D02*
X86562500Y-95437500D01*
X68050000Y-87850000D02*
X67200000Y-87000000D01*
%TO.N,+3V3*%
X93100000Y-80837500D02*
X93100000Y-81100000D01*
X87537500Y-84350000D02*
X89130000Y-84350000D01*
X98125000Y-74975000D02*
X97600000Y-75500000D01*
X87900000Y-67055000D02*
X87900000Y-67500000D01*
X89200000Y-84700000D02*
X89600000Y-85100000D01*
X87900000Y-67500000D02*
X88575000Y-68175000D01*
X98720000Y-74975000D02*
X98720000Y-73775000D01*
X68900000Y-52900000D02*
X68900000Y-54800000D01*
X87585671Y-68175000D02*
X87047727Y-67637056D01*
X98720000Y-74975000D02*
X98125000Y-74975000D01*
X88575000Y-68175000D02*
X87585671Y-68175000D01*
X89130000Y-84350000D02*
X89200000Y-84280000D01*
X93100000Y-81100000D02*
X92300000Y-81900000D01*
X89200000Y-84280000D02*
X89200000Y-84700000D01*
X50450000Y-100095000D02*
X50450000Y-98750000D01*
X50450000Y-98750000D02*
X50300000Y-98600000D01*
X96925000Y-73775000D02*
X98720000Y-73775000D01*
X94520000Y-80975000D02*
X93237500Y-80975000D01*
X93237500Y-80975000D02*
X93100000Y-80837500D01*
X68900000Y-54800000D02*
X68400000Y-55300000D01*
%TO.N,+3.3VA*%
X93337500Y-78475000D02*
X93100000Y-78712500D01*
X94820000Y-76875000D02*
X94820000Y-75220000D01*
X94820000Y-78475000D02*
X93337500Y-78475000D01*
X94820000Y-75220000D02*
X94750000Y-75150000D01*
X94820000Y-76875000D02*
X94820000Y-78475000D01*
D40*
%TO.N,/HSE_IN*%
X86655000Y-68155000D02*
X86100000Y-68155000D01*
X86100000Y-68155000D02*
X86100000Y-68300000D01*
X85274000Y-69126000D02*
X83526000Y-69126000D01*
X86100000Y-68300000D02*
X85274000Y-69126000D01*
X83526000Y-69126000D02*
X82650000Y-68250000D01*
X88575000Y-68975000D02*
X87475000Y-68975000D01*
X87475000Y-68975000D02*
X86655000Y-68155000D01*
X82650000Y-68250000D02*
X82650000Y-68075000D01*
%TO.N,/HSE_OUT*%
X86700000Y-70300000D02*
X86695000Y-70295000D01*
X86695000Y-70295000D02*
X86100000Y-70295000D01*
X87225000Y-69775000D02*
X86700000Y-70300000D01*
X84370000Y-70295000D02*
X84350000Y-70275000D01*
X86100000Y-70295000D02*
X84370000Y-70295000D01*
X88575000Y-69775000D02*
X87225000Y-69775000D01*
%TO.N,/RESET*%
X76000000Y-83500000D02*
X83900000Y-75600000D01*
X89900000Y-71000000D02*
X89475000Y-70575000D01*
X59800000Y-102100000D02*
X59800000Y-101100000D01*
X89900000Y-71300000D02*
X89900000Y-71000000D01*
X57950000Y-102700000D02*
X59200000Y-102700000D01*
X89475000Y-70575000D02*
X88575000Y-70575000D01*
X59200000Y-102700000D02*
X59800000Y-102100000D01*
X83900000Y-75600000D02*
X83900000Y-74500000D01*
X53850000Y-102700000D02*
X57950000Y-102700000D01*
D41*
%TO.N,/SHIELD*%
X35705000Y-81320000D02*
X39885000Y-81320000D01*
X35705000Y-81320000D02*
X35705000Y-72680000D01*
X39885000Y-83152500D02*
X39637500Y-83400000D01*
X39885000Y-81320000D02*
X39885000Y-83152500D01*
X35705000Y-72680000D02*
X39885000Y-72680000D01*
D40*
%TO.N,/I2C_SDA*%
X100400000Y-90500000D02*
X89100000Y-101800000D01*
X98775000Y-71375000D02*
X99000000Y-71600000D01*
X89100000Y-101800000D02*
X74300000Y-101800000D01*
X96925000Y-71375000D02*
X98775000Y-71375000D01*
%TO.N,/I2C_SCL*%
X98275000Y-72175000D02*
X98400000Y-72300000D01*
X96925000Y-72175000D02*
X98275000Y-72175000D01*
X99700000Y-89700000D02*
X88600000Y-100800000D01*
X88600000Y-100800000D02*
X74400000Y-100800000D01*
%TO.N,/D-*%
X44100000Y-76300000D02*
X44050000Y-76250000D01*
X79200000Y-66300000D02*
X79200000Y-71700000D01*
X79200000Y-71700000D02*
X78200000Y-72700000D01*
X100325000Y-70575000D02*
X96925000Y-70575000D01*
X44100000Y-76700000D02*
X44100000Y-76300000D01*
X78200000Y-72700000D02*
X62100000Y-72700000D01*
X44100000Y-77100000D02*
X44100000Y-76700000D01*
X44100000Y-76700000D02*
X44900000Y-76700000D01*
X82400000Y-64100000D02*
X81400000Y-64100000D01*
X43950000Y-77250000D02*
X44100000Y-77100000D01*
X81400000Y-64100000D02*
X79200000Y-66300000D01*
X40800000Y-77250000D02*
X43950000Y-77250000D01*
X100600000Y-70300000D02*
X100325000Y-70575000D01*
X44050000Y-76250000D02*
X40800000Y-76250000D01*
%TO.N,/D+*%
X98925000Y-69775000D02*
X96925000Y-69775000D01*
X39350000Y-76750000D02*
X39300000Y-76800000D01*
X40800000Y-76750000D02*
X39350000Y-76750000D01*
X42350000Y-77750000D02*
X42600000Y-78000000D01*
X40800000Y-77750000D02*
X42350000Y-77750000D01*
X42600000Y-78000000D02*
X77500000Y-78000000D01*
X81300000Y-74200000D02*
X81400000Y-74100000D01*
X39300000Y-76800000D02*
X39300000Y-77600000D01*
X81400000Y-74100000D02*
X81800000Y-74100000D01*
X39450000Y-77750000D02*
X40800000Y-77750000D01*
X99800000Y-67500000D02*
X99800000Y-68900000D01*
X77500000Y-78000000D02*
X81300000Y-74200000D01*
X99800000Y-68900000D02*
X98925000Y-69775000D01*
X39300000Y-77600000D02*
X39450000Y-77750000D01*
%TO.N,/LCD_CS*%
X79700000Y-86899000D02*
X79399000Y-86899000D01*
X71000000Y-86900000D02*
X67500000Y-83400000D01*
X83100000Y-86700000D02*
X82901000Y-86899000D01*
X82500000Y-86899000D02*
X79700000Y-86899000D01*
X88150000Y-75150000D02*
X87000000Y-76300000D01*
X79399000Y-86899000D02*
X77100000Y-84600000D01*
X82901000Y-86899000D02*
X82500000Y-86899000D01*
X61200000Y-65300000D02*
X60800000Y-64900000D01*
X58600000Y-55600000D02*
X58600000Y-53040000D01*
X89950000Y-75150000D02*
X88150000Y-75150000D01*
X61200000Y-69900000D02*
X61200000Y-65300000D01*
X74400000Y-86900000D02*
X71000000Y-86900000D01*
X58600000Y-53040000D02*
X58740000Y-52900000D01*
%TO.N,/LCD_SDA*%
X90599997Y-78000003D02*
X88400000Y-78000003D01*
X67400000Y-63500000D02*
X63820000Y-59920000D01*
X92350000Y-76250000D02*
X91700000Y-76900000D01*
X76900000Y-71600000D02*
X68800000Y-63500000D01*
X91400000Y-77200000D02*
X90599997Y-78000003D01*
X91700000Y-76900000D02*
X91400000Y-77200000D01*
X92350000Y-75150000D02*
X92350000Y-76250000D01*
X63820000Y-59920000D02*
X63820000Y-52900000D01*
X68800000Y-63500000D02*
X67400000Y-63500000D01*
%TO.N,/LCD_SCK*%
X90750000Y-75150000D02*
X90750000Y-75899999D01*
X61280000Y-58780000D02*
X61280000Y-52900000D01*
X85400000Y-79600000D02*
X85400000Y-79208520D01*
X90149999Y-76500000D02*
X89701000Y-76500000D01*
X83591480Y-77400000D02*
X83300000Y-77400000D01*
X90750000Y-75899999D02*
X90149999Y-76500000D01*
X85400000Y-79208520D02*
X83591480Y-77400000D01*
X65300000Y-62800000D02*
X61280000Y-58780000D01*
%TO.N,/LCD_DC*%
X100125000Y-72975000D02*
X101800000Y-71300000D01*
X101800000Y-71300000D02*
X101800000Y-71000000D01*
X78400000Y-57400000D02*
X65300000Y-57400000D01*
X58100000Y-57400000D02*
X57800000Y-57400000D01*
X96925000Y-72975000D02*
X100125000Y-72975000D01*
X57800000Y-57400000D02*
X56200000Y-55800000D01*
X56200000Y-55800000D02*
X56200000Y-52900000D01*
%TO.N,/LCD_BL*%
X63000000Y-63600000D02*
X54100000Y-63600000D01*
X51120000Y-60620000D02*
X51120000Y-52900000D01*
X84500000Y-79300000D02*
X84000000Y-79800000D01*
X54100000Y-63600000D02*
X51120000Y-60620000D01*
X91550000Y-75899999D02*
X90249999Y-77200000D01*
X84000000Y-79800000D02*
X81600000Y-79800000D01*
X90249999Y-77200000D02*
X88400000Y-77200000D01*
X91550000Y-75150000D02*
X91550000Y-75899999D01*
%TO.N,/LCD_RST*%
X53660000Y-60540000D02*
X53660000Y-52900000D01*
X88325000Y-73775000D02*
X86700000Y-75400000D01*
X88575000Y-73775000D02*
X88325000Y-73775000D01*
X53600000Y-60600000D02*
X53660000Y-60540000D01*
%TO.N,/SWDIO*%
X96925000Y-68975000D02*
X97674999Y-68975000D01*
X98800000Y-61800000D02*
X90375000Y-53375000D01*
X97674999Y-68975000D02*
X98800000Y-67849999D01*
X98800000Y-67849999D02*
X98800000Y-61800000D01*
X90375000Y-53375000D02*
X90375000Y-52900000D01*
%TO.N,/BOOT*%
X48787500Y-96000000D02*
X48700000Y-96087500D01*
X90750000Y-67850000D02*
X90750000Y-66800000D01*
X90900000Y-68000000D02*
X90750000Y-67850000D01*
X50600000Y-96000000D02*
X48787500Y-96000000D01*
X90900000Y-73200000D02*
X90900000Y-68000000D01*
%TO.N,/BTN_1*%
X84600000Y-75200000D02*
X84600000Y-74719240D01*
X84600000Y-74719240D02*
X87944240Y-71375000D01*
X87944240Y-71375000D02*
X88575000Y-71375000D01*
%TO.N,/BTN_2*%
X85300000Y-74823370D02*
X85300000Y-76900000D01*
X91550000Y-83150000D02*
X91550000Y-84500000D01*
X88575000Y-72175000D02*
X87948370Y-72175000D01*
X87948370Y-72175000D02*
X85300000Y-74823370D01*
X85300000Y-76900000D02*
X91550000Y-83150000D01*
%TO.N,/BTN_3*%
X85900000Y-76791480D02*
X87004260Y-77895740D01*
X85900000Y-75023370D02*
X85900000Y-75500000D01*
X95574914Y-82845740D02*
X103800000Y-74620654D01*
X87948370Y-72975000D02*
X85900000Y-75023370D01*
X91954260Y-82845740D02*
X95574914Y-82845740D01*
X103800000Y-74620654D02*
X103800000Y-67600000D01*
X85900000Y-75500000D02*
X85900000Y-76791480D01*
X87004260Y-77895740D02*
X91954260Y-82845740D01*
X88575000Y-72975000D02*
X87948370Y-72975000D01*
%TO.N,/FLASH_SCK*%
X94750000Y-66050001D02*
X95900001Y-64900000D01*
X97700000Y-63200000D02*
X95735000Y-61235000D01*
X97700000Y-64000000D02*
X97700000Y-63200000D01*
X96800000Y-64900000D02*
X97700000Y-64000000D01*
X95900001Y-64900000D02*
X96800000Y-64900000D01*
X94750000Y-66800000D02*
X94750000Y-66050001D01*
%TO.N,/FLASH_MOSI*%
X93150000Y-66800000D02*
X93150000Y-65950000D01*
X95700000Y-63400000D02*
X95700000Y-62700000D01*
X93150000Y-65950000D02*
X95700000Y-63400000D01*
X95700000Y-62700000D02*
X95505000Y-62505000D01*
%TO.N,/FLASH_MISO*%
X93950000Y-66800000D02*
X93950000Y-66050000D01*
X95400000Y-64600000D02*
X96500000Y-63500000D01*
X96500000Y-63500000D02*
X96800000Y-63500000D01*
X93950000Y-66050000D02*
X95400000Y-64600000D01*
%TO.N,/SW_BOOT*%
X48700000Y-97912500D02*
X48700000Y-99845000D01*
X48700000Y-99845000D02*
X48950000Y-100095000D01*
%TO.N,/CC2*%
X44725000Y-78750000D02*
X45375000Y-79400000D01*
X40800000Y-78750000D02*
X44725000Y-78750000D01*
%TO.N,/CC1*%
X41750000Y-75750000D02*
X42475000Y-75025000D01*
X40800000Y-75750000D02*
X41750000Y-75750000D01*
X42475000Y-75025000D02*
X44700000Y-75025000D01*
%TO.N,/STAT*%
X84662500Y-92850000D02*
X84412500Y-93100000D01*
X86562500Y-92850000D02*
X84662500Y-92850000D01*
%TO.N,/LED*%
X82587500Y-93100000D02*
X82587500Y-90725000D01*
X82587500Y-90725000D02*
X82562500Y-90700000D01*
%TO.N,/PROG*%
X88837500Y-92850000D02*
X90237500Y-92850000D01*
X90237500Y-92850000D02*
X90787500Y-92300000D01*
%TO.N,/SW_RESET*%
X58180000Y-99820000D02*
X58180000Y-99180000D01*
X53850000Y-101100000D02*
X57950000Y-101100000D01*
X57950000Y-101100000D02*
X57950000Y-100050000D01*
X57950000Y-100050000D02*
X58180000Y-99820000D01*
D41*
%TO.N,/VIN*%
X76500000Y-54380000D02*
X76550000Y-54330000D01*
X86424000Y-84744000D02*
X86030000Y-84350000D01*
X81800000Y-84400000D02*
X83700000Y-84400000D01*
X85192500Y-84280000D02*
X85262500Y-84350000D01*
X85212500Y-84400000D02*
X85262500Y-84350000D01*
X76500000Y-55800000D02*
X76500000Y-54380000D01*
D40*
X85262500Y-86250000D02*
X85850000Y-86250000D01*
D41*
X86771900Y-85101000D02*
X86424000Y-84753100D01*
X83700000Y-84400000D02*
X85212500Y-84400000D01*
X86424000Y-84753100D02*
X86424000Y-84744000D01*
D40*
X85850000Y-84350000D02*
X85262500Y-84350000D01*
D41*
X86810000Y-85290000D02*
X86810000Y-85130000D01*
X86030000Y-84350000D02*
X85850000Y-84350000D01*
X85850000Y-86250000D02*
X86810000Y-85290000D01*
X86810000Y-85130000D02*
X86781000Y-85101000D01*
X86781000Y-85101000D02*
X86771900Y-85101000D01*
X83700000Y-83280000D02*
X83700000Y-84400000D01*
%TD*%
M02*
