%TF.GenerationSoftware,KiCad,Pcbnew,9.0.6*%
%TF.CreationDate,2025-12-14T01:17:05-08:00*%
%TF.ProjectId,base-station,62617365-2d73-4746-9174-696f6e2e6b69,rev?*%
%TF.SameCoordinates,Original*%
%TF.FileFunction,Paste,Top*%
%TF.FilePolarity,Positive*%
%FSLAX46Y46*%
G04 Gerber Fmt 4.6, Leading zero omitted, Abs format (unit mm)*
G04 Created by KiCad (PCBNEW 9.0.6) date 2025-12-14 01:17:05*
%MOMM*%
%LPD*%
G01*
G04 APERTURE LIST*
G04 Aperture macros list*
%AMRoundRect*
0 Rectangle with rounded corners*
0 $1 Rounding radius*
0 $2 $3 $4 $5 $6 $7 $8 $9 X,Y pos of 4 corners*
0 Add a 4 corners polygon primitive as box body*
4,1,4,$2,$3,$4,$5,$6,$7,$8,$9,$2,$3,0*
0 Add four circle primitives for the rounded corners*
1,1,$1+$1,$2,$3*
1,1,$1+$1,$4,$5*
1,1,$1+$1,$6,$7*
1,1,$1+$1,$8,$9*
0 Add four rect primitives between the rounded corners*
20,1,$1+$1,$2,$3,$4,$5,0*
20,1,$1+$1,$4,$5,$6,$7,0*
20,1,$1+$1,$6,$7,$8,$9,0*
20,1,$1+$1,$8,$9,$2,$3,0*%
G04 Aperture macros list end*
%ADD10RoundRect,0.162500X-0.650000X-0.162500X0.650000X-0.162500X0.650000X0.162500X-0.650000X0.162500X0*%
%ADD11RoundRect,0.140000X-0.140000X-0.170000X0.140000X-0.170000X0.140000X0.170000X-0.140000X0.170000X0*%
%ADD12R,1.000000X0.800000*%
%ADD13R,0.700000X1.500000*%
%ADD14RoundRect,0.140000X-0.170000X0.140000X-0.170000X-0.140000X0.170000X-0.140000X0.170000X0.140000X0*%
%ADD15RoundRect,0.250000X0.450000X-0.262500X0.450000X0.262500X-0.450000X0.262500X-0.450000X-0.262500X0*%
%ADD16RoundRect,0.150000X-0.512500X-0.150000X0.512500X-0.150000X0.512500X0.150000X-0.512500X0.150000X0*%
%ADD17RoundRect,0.140000X0.170000X-0.140000X0.170000X0.140000X-0.170000X0.140000X-0.170000X-0.140000X0*%
%ADD18RoundRect,0.250000X-0.350000X0.450000X-0.350000X-0.450000X0.350000X-0.450000X0.350000X0.450000X0*%
%ADD19RoundRect,0.200000X-0.200000X-0.275000X0.200000X-0.275000X0.200000X0.275000X-0.200000X0.275000X0*%
%ADD20R,1.450000X0.600000*%
%ADD21R,1.450000X0.300000*%
%ADD22RoundRect,0.243750X-0.243750X-0.456250X0.243750X-0.456250X0.243750X0.456250X-0.243750X0.456250X0*%
%ADD23RoundRect,0.200000X0.275000X-0.200000X0.275000X0.200000X-0.275000X0.200000X-0.275000X-0.200000X0*%
%ADD24RoundRect,0.218750X0.381250X-0.218750X0.381250X0.218750X-0.381250X0.218750X-0.381250X-0.218750X0*%
%ADD25RoundRect,0.218750X0.218750X0.381250X-0.218750X0.381250X-0.218750X-0.381250X0.218750X-0.381250X0*%
%ADD26RoundRect,0.250000X-0.262500X-0.450000X0.262500X-0.450000X0.262500X0.450000X-0.262500X0.450000X0*%
%ADD27RoundRect,0.250000X0.262500X0.450000X-0.262500X0.450000X-0.262500X-0.450000X0.262500X-0.450000X0*%
%ADD28R,0.900000X1.000000*%
%ADD29RoundRect,0.125000X-0.625000X-0.125000X0.625000X-0.125000X0.625000X0.125000X-0.625000X0.125000X0*%
%ADD30RoundRect,0.125000X-0.125000X-0.625000X0.125000X-0.625000X0.125000X0.625000X-0.125000X0.625000X0*%
G04 APERTURE END LIST*
D10*
%TO.C,U3*%
X86112500Y-58695000D03*
X86112500Y-59965000D03*
X86112500Y-61235000D03*
X86112500Y-62505000D03*
X93287500Y-62505000D03*
X93287500Y-61235000D03*
X93287500Y-59965000D03*
X93287500Y-58695000D03*
%TD*%
D11*
%TO.C,C10*%
X94820000Y-76875000D03*
X95780000Y-76875000D03*
%TD*%
D12*
%TO.C,SW3*%
X44550000Y-100745000D03*
X44550000Y-102955000D03*
X51850000Y-100745000D03*
X51850000Y-102955000D03*
D13*
X45950000Y-100095000D03*
X48950000Y-100095000D03*
X50450000Y-100095000D03*
%TD*%
D14*
%TO.C,C2*%
X85000000Y-95020000D03*
X85000000Y-95980000D03*
%TD*%
D11*
%TO.C,C7*%
X98720000Y-74975000D03*
X99680000Y-74975000D03*
%TD*%
D15*
%TO.C,R5*%
X48700000Y-97912500D03*
X48700000Y-96087500D03*
%TD*%
D16*
%TO.C,U2*%
X85262500Y-84350000D03*
X85262500Y-85300000D03*
X85262500Y-86250000D03*
X87537500Y-86250000D03*
X87537500Y-84350000D03*
%TD*%
D14*
%TO.C,C1*%
X90400000Y-94900000D03*
X90400000Y-95860000D03*
%TD*%
D17*
%TO.C,C13*%
X58180000Y-99180000D03*
X58180000Y-98220000D03*
%TD*%
D18*
%TO.C,Y1*%
X82650000Y-68075000D03*
X82650000Y-70275000D03*
X84350000Y-70275000D03*
X84350000Y-68075000D03*
%TD*%
D19*
%TO.C,R2*%
X45375000Y-79400000D03*
X47025000Y-79400000D03*
%TD*%
D20*
%TO.C,J2*%
X40800000Y-73750000D03*
X40800000Y-74550000D03*
D21*
X40800000Y-75750000D03*
X40800000Y-76750000D03*
X40800000Y-77250000D03*
X40800000Y-78250000D03*
D20*
X40800000Y-79450000D03*
X40800000Y-80250000D03*
X40800000Y-80250000D03*
X40800000Y-79450000D03*
D21*
X40800000Y-78750000D03*
X40800000Y-77750000D03*
X40800000Y-76250000D03*
X40800000Y-75250000D03*
D20*
X40800000Y-74550000D03*
X40800000Y-73750000D03*
%TD*%
D16*
%TO.C,U1*%
X86562500Y-92850000D03*
X86562500Y-93800000D03*
X86562500Y-94750000D03*
X88837500Y-94750000D03*
X88837500Y-92850000D03*
%TD*%
D22*
%TO.C,D1*%
X82562500Y-90700000D03*
X84437500Y-90700000D03*
%TD*%
D23*
%TO.C,R1*%
X44700000Y-75025000D03*
X44700000Y-73375000D03*
%TD*%
D24*
%TO.C,FB2*%
X93100000Y-80837500D03*
X93100000Y-78712500D03*
%TD*%
D17*
%TO.C,C11*%
X86100000Y-68155000D03*
X86100000Y-67195000D03*
%TD*%
D14*
%TO.C,C12*%
X86100000Y-70295000D03*
X86100000Y-71255000D03*
%TD*%
D25*
%TO.C,FB1*%
X41762500Y-83400000D03*
X39637500Y-83400000D03*
%TD*%
D11*
%TO.C,C8*%
X94520000Y-80975000D03*
X95480000Y-80975000D03*
%TD*%
D17*
%TO.C,C3*%
X83700000Y-83280000D03*
X83700000Y-82320000D03*
%TD*%
%TO.C,C4*%
X89200000Y-84280000D03*
X89200000Y-83320000D03*
%TD*%
D26*
%TO.C,R4*%
X90787500Y-92300000D03*
X92612500Y-92300000D03*
%TD*%
D12*
%TO.C,SW2*%
X80950000Y-53680000D03*
X80950000Y-51470000D03*
X73650000Y-53680000D03*
X73650000Y-51470000D03*
D13*
X79550000Y-54330000D03*
X76550000Y-54330000D03*
X75050000Y-54330000D03*
%TD*%
D11*
%TO.C,C9*%
X94820000Y-78475000D03*
X95780000Y-78475000D03*
%TD*%
D27*
%TO.C,R3*%
X84412500Y-93100000D03*
X82587500Y-93100000D03*
%TD*%
D17*
%TO.C,C6*%
X87700000Y-67055000D03*
X87700000Y-66095000D03*
%TD*%
D28*
%TO.C,SW1*%
X53850000Y-101100000D03*
X57950000Y-101100000D03*
X53850000Y-102700000D03*
X57950000Y-102700000D03*
%TD*%
D29*
%TO.C,U4*%
X88575000Y-68175000D03*
X88575000Y-68975000D03*
X88575000Y-69775000D03*
X88575000Y-70575000D03*
X88575000Y-71375000D03*
X88575000Y-72175000D03*
X88575000Y-72975000D03*
X88575000Y-73775000D03*
D30*
X89950000Y-75150000D03*
X90750000Y-75150000D03*
X91550000Y-75150000D03*
X92350000Y-75150000D03*
X93150000Y-75150000D03*
X93950000Y-75150000D03*
X94750000Y-75150000D03*
X95550000Y-75150000D03*
D29*
X96925000Y-73775000D03*
X96925000Y-72975000D03*
X96925000Y-72175000D03*
X96925000Y-71375000D03*
X96925000Y-70575000D03*
X96925000Y-69775000D03*
X96925000Y-68975000D03*
X96925000Y-68175000D03*
D30*
X95550000Y-66800000D03*
X94750000Y-66800000D03*
X93950000Y-66800000D03*
X93150000Y-66800000D03*
X92350000Y-66800000D03*
X91550000Y-66800000D03*
X90750000Y-66800000D03*
X89950000Y-66800000D03*
%TD*%
D11*
%TO.C,C5*%
X98720000Y-73775000D03*
X99680000Y-73775000D03*
%TD*%
M02*
