%TF.GenerationSoftware,KiCad,Pcbnew,9.0.6*%
%TF.CreationDate,2025-12-14T01:17:05-08:00*%
%TF.ProjectId,base-station,62617365-2d73-4746-9174-696f6e2e6b69,rev?*%
%TF.SameCoordinates,Original*%
%TF.FileFunction,Copper,L4,Bot*%
%TF.FilePolarity,Positive*%
%FSLAX46Y46*%
G04 Gerber Fmt 4.6, Leading zero omitted, Abs format (unit mm)*
G04 Created by KiCad (PCBNEW 9.0.6) date 2025-12-14 01:17:05*
%MOMM*%
%LPD*%
G01*
G04 APERTURE LIST*
G04 Aperture macros list*
%AMRoundRect*
0 Rectangle with rounded corners*
0 $1 Rounding radius*
0 $2 $3 $4 $5 $6 $7 $8 $9 X,Y pos of 4 corners*
0 Add a 4 corners polygon primitive as box body*
4,1,4,$2,$3,$4,$5,$6,$7,$8,$9,$2,$3,0*
0 Add four circle primitives for the rounded corners*
1,1,$1+$1,$2,$3*
1,1,$1+$1,$4,$5*
1,1,$1+$1,$6,$7*
1,1,$1+$1,$8,$9*
0 Add four rect primitives between the rounded corners*
20,1,$1+$1,$2,$3,$4,$5,0*
20,1,$1+$1,$4,$5,$6,$7,0*
20,1,$1+$1,$6,$7,$8,$9,0*
20,1,$1+$1,$8,$9,$2,$3,0*%
G04 Aperture macros list end*
%TA.AperFunction,ComponentPad*%
%ADD10RoundRect,0.250000X-0.625000X0.350000X-0.625000X-0.350000X0.625000X-0.350000X0.625000X0.350000X0*%
%TD*%
%TA.AperFunction,ComponentPad*%
%ADD11O,1.750000X1.200000*%
%TD*%
%TA.AperFunction,SMDPad,CuDef*%
%ADD12R,2.600000X2.600000*%
%TD*%
%TA.AperFunction,ComponentPad*%
%ADD13C,2.032000*%
%TD*%
%TA.AperFunction,HeatsinkPad*%
%ADD14O,2.100000X1.000000*%
%TD*%
%TA.AperFunction,HeatsinkPad*%
%ADD15O,1.600000X1.000000*%
%TD*%
%TA.AperFunction,ComponentPad*%
%ADD16R,1.700000X1.700000*%
%TD*%
%TA.AperFunction,ComponentPad*%
%ADD17C,1.700000*%
%TD*%
%TA.AperFunction,SMDPad,CuDef*%
%ADD18C,2.000000*%
%TD*%
%TA.AperFunction,ViaPad*%
%ADD19C,0.600000*%
%TD*%
%TA.AperFunction,Conductor*%
%ADD20C,0.300000*%
%TD*%
%TA.AperFunction,Conductor*%
%ADD21C,0.500000*%
%TD*%
G04 APERTURE END LIST*
D10*
%TO.P,J4,1,Pin_1*%
%TO.N,/VBAT*%
X39650000Y-87000000D03*
D11*
%TO.P,J4,2,Pin_2*%
%TO.N,GND*%
X39650000Y-89000000D03*
%TD*%
D12*
%TO.P,SW5,1,1*%
%TO.N,GND*%
X116025000Y-100200000D03*
D13*
X112750000Y-88350000D03*
%TO.P,SW5,2,2*%
%TO.N,/BTN_2*%
X117750000Y-90450000D03*
D12*
X104475000Y-98000000D03*
%TD*%
D14*
%TO.P,J2,S1,SHIELD*%
%TO.N,/SHIELD*%
X39885000Y-72680000D03*
D15*
X35705000Y-72680000D03*
D14*
X39885000Y-81320000D03*
D15*
X35705000Y-81320000D03*
%TD*%
D16*
%TO.P,J3,1,Pin_1*%
%TO.N,+3V3*%
X68900000Y-52900000D03*
D17*
%TO.P,J3,2,Pin_2*%
%TO.N,GND*%
X66360000Y-52900000D03*
%TO.P,J3,3,Pin_3*%
%TO.N,/LCD_SDA*%
X63820000Y-52900000D03*
%TO.P,J3,4,Pin_4*%
%TO.N,/LCD_SCK*%
X61280000Y-52900000D03*
%TO.P,J3,5,Pin_5*%
%TO.N,/LCD_CS*%
X58740000Y-52900000D03*
%TO.P,J3,6,Pin_6*%
%TO.N,/LCD_DC*%
X56200000Y-52900000D03*
%TO.P,J3,7,Pin_7*%
%TO.N,/LCD_RST*%
X53660000Y-52900000D03*
%TO.P,J3,8,Pin_8*%
%TO.N,/LCD_BL*%
X51120000Y-52900000D03*
%TD*%
D16*
%TO.P,J5,1,Pin_1*%
%TO.N,/SWDIO*%
X90375000Y-52900000D03*
D17*
%TO.P,J5,2,Pin_2*%
%TO.N,/SWCLK*%
X87835000Y-52900000D03*
%TD*%
D12*
%TO.P,SW6,1,1*%
%TO.N,GND*%
X116025000Y-65700000D03*
D13*
X112750000Y-53850000D03*
%TO.P,SW6,2,2*%
%TO.N,/BTN_3*%
X117750000Y-55950000D03*
D12*
X104475000Y-63500000D03*
%TD*%
%TO.P,SW4,1,1*%
%TO.N,GND*%
X116025000Y-82950000D03*
D13*
X112750000Y-71100000D03*
%TO.P,SW4,2,2*%
%TO.N,/BTN_1*%
X117750000Y-73200000D03*
D12*
X104475000Y-80750000D03*
%TD*%
D18*
%TO.P,J1,1,Pin_1*%
%TO.N,/VBAT*%
X77160000Y-99055000D03*
%TO.P,J1,2,Pin_2*%
%TO.N,+3V3*%
X74620000Y-99055000D03*
%TO.P,J1,3,Pin_3*%
%TO.N,/I2C_SCL*%
X72080000Y-99055000D03*
%TO.P,J1,4,Pin_4*%
%TO.N,/I2C_SDA*%
X69540000Y-99055000D03*
%TO.P,J1,5,Pin_5*%
%TO.N,unconnected-(J1-Pin_5-Pad5)*%
X67000000Y-99055000D03*
%TO.P,J1,6,Pin_6*%
%TO.N,GND*%
X64460000Y-99055000D03*
%TD*%
D19*
%TO.N,+3V3*%
X91750000Y-60500000D03*
X91500000Y-59250000D03*
X84500000Y-61750000D03*
%TO.N,GND*%
X84500000Y-63000000D03*
X117300000Y-102100000D03*
X112200000Y-86900000D03*
X42400000Y-80900000D03*
X90200000Y-68200000D03*
X89300000Y-96100000D03*
X90300000Y-82900000D03*
X42300000Y-84600000D03*
X117000000Y-84700000D03*
X95300000Y-73700000D03*
X88000000Y-93800000D03*
X81300000Y-70600000D03*
X59300000Y-98300000D03*
X64100000Y-97500000D03*
X93800000Y-73700000D03*
X112200000Y-52000000D03*
X100700000Y-73600000D03*
X96300000Y-81200000D03*
X83800000Y-96300000D03*
X116800000Y-67600000D03*
X85500000Y-71900000D03*
X83800000Y-85400000D03*
X86100000Y-66300000D03*
X44000000Y-72200000D03*
X47000000Y-98600000D03*
X41900000Y-89400000D03*
X84600000Y-81700000D03*
X48000000Y-80400000D03*
X111900000Y-69400000D03*
%TO.N,/VBAT*%
X69200000Y-86500000D03*
X70500000Y-66200000D03*
X86000000Y-96000000D03*
X73800000Y-56600000D03*
X77400000Y-97200000D03*
X64800000Y-71900000D03*
%TO.N,+3V3*%
X92300000Y-81900000D03*
X74200000Y-97400000D03*
X50300000Y-98600000D03*
X87047727Y-67637056D03*
X97600000Y-75500000D03*
X89600000Y-85100000D03*
X68400000Y-55300000D03*
%TO.N,/RESET*%
X59800000Y-101100000D03*
X76000000Y-83500000D03*
X83900000Y-74500000D03*
X89900000Y-71300000D03*
%TO.N,/I2C_SDA*%
X74300000Y-101800000D03*
X99000000Y-71600000D03*
X100400000Y-90500000D03*
%TO.N,/I2C_SCL*%
X98400000Y-72300000D03*
X74400000Y-100800000D03*
X99700000Y-89700000D03*
%TO.N,/D-*%
X100600000Y-70300000D03*
X44900000Y-76700000D03*
X82400000Y-64100000D03*
X62100000Y-72700000D03*
%TO.N,/D+*%
X99800000Y-67500000D03*
X81800000Y-74100000D03*
%TO.N,/LCD_CS*%
X67500000Y-83400000D03*
X74400000Y-86900000D03*
X77100000Y-84600000D03*
X83100000Y-86700000D03*
X61200000Y-69900000D03*
X58600000Y-55600000D03*
X60800000Y-64900000D03*
X87000000Y-76300000D03*
%TO.N,/LCD_SDA*%
X88400000Y-78000003D03*
X76900000Y-71600000D03*
%TO.N,/LCD_SCK*%
X89701000Y-76500000D03*
X65300000Y-62800000D03*
X83300000Y-77400000D03*
X85400000Y-79600000D03*
%TO.N,/LCD_DC*%
X101800000Y-71000000D03*
X58100000Y-57400000D03*
X65300000Y-57400000D03*
X78400000Y-57400000D03*
%TO.N,/LCD_BL*%
X81600000Y-79800000D03*
X84500000Y-79300000D03*
X88400000Y-77200000D03*
X63000000Y-63600000D03*
%TO.N,/LCD_RST*%
X53600000Y-60600000D03*
X86700000Y-75400000D03*
%TO.N,/BOOT*%
X50600000Y-96000000D03*
X90900000Y-73200000D03*
%TO.N,/BTN_1*%
X84600000Y-75200000D03*
%TO.N,/BTN_2*%
X91550000Y-84500000D03*
%TO.N,/BTN_3*%
X103800000Y-67600000D03*
%TO.N,/FLASH_MISO*%
X96800000Y-63500000D03*
X89800000Y-61500000D03*
%TO.N,/VIN*%
X81800000Y-84400000D03*
X76500000Y-55800000D03*
%TD*%
D20*
%TO.N,/LCD_DC*%
X101800000Y-71000000D02*
X101800000Y-65550000D01*
X101800000Y-65550000D02*
X93650000Y-57400000D01*
X93650000Y-57400000D02*
X78400000Y-57400000D01*
D21*
%TO.N,GND*%
X64460000Y-99055000D02*
X64460000Y-97860000D01*
X116025000Y-100825000D02*
X117300000Y-102100000D01*
X116025000Y-66825000D02*
X116800000Y-67600000D01*
X116025000Y-82950000D02*
X116025000Y-83725000D01*
X116025000Y-100200000D02*
X116025000Y-100825000D01*
X64460000Y-97860000D02*
X64100000Y-97500000D01*
X116025000Y-83725000D02*
X117000000Y-84700000D01*
X116025000Y-65700000D02*
X116025000Y-66825000D01*
D20*
%TO.N,/VBAT*%
X73800000Y-56600000D02*
X73600000Y-56600000D01*
X64800000Y-71900000D02*
X68800000Y-75900000D01*
X70400000Y-66100000D02*
X70500000Y-66200000D01*
D21*
X78300000Y-97200000D02*
X77400000Y-97200000D01*
D20*
X68800000Y-83300000D02*
X69200000Y-83700000D01*
X73600000Y-56600000D02*
X70400000Y-59800000D01*
X70400000Y-59800000D02*
X70400000Y-66100000D01*
D21*
X78300000Y-97915000D02*
X77160000Y-99055000D01*
X86000000Y-96000000D02*
X84800000Y-97200000D01*
D20*
X68800000Y-75900000D02*
X68800000Y-83300000D01*
D21*
X78300000Y-97200000D02*
X78300000Y-97915000D01*
X84800000Y-97200000D02*
X78300000Y-97200000D01*
D20*
X69200000Y-83700000D02*
X69200000Y-86500000D01*
D21*
%TO.N,+3V3*%
X74620000Y-99055000D02*
X74620000Y-97820000D01*
X74620000Y-97820000D02*
X74200000Y-97400000D01*
D20*
%TO.N,/RESET*%
X76000000Y-83500000D02*
X61900000Y-97600000D01*
X61900000Y-97600000D02*
X60300000Y-97600000D01*
X60300000Y-98500000D02*
X59800000Y-99000000D01*
X59800000Y-99000000D02*
X59800000Y-101100000D01*
X83900000Y-74500000D02*
X87100000Y-71300000D01*
X60300000Y-97600000D02*
X60300000Y-98500000D01*
X87100000Y-71300000D02*
X89900000Y-71300000D01*
%TO.N,/I2C_SDA*%
X99000000Y-71600000D02*
X99800000Y-71600000D01*
X72285000Y-101800000D02*
X69540000Y-99055000D01*
X99800000Y-71600000D02*
X101700000Y-73500000D01*
X101700000Y-73500000D02*
X101700000Y-89200000D01*
X101700000Y-89200000D02*
X100400000Y-90500000D01*
X74300000Y-101800000D02*
X72285000Y-101800000D01*
%TO.N,/I2C_SCL*%
X100900000Y-74800000D02*
X100900000Y-78100000D01*
X100900000Y-78100000D02*
X100900000Y-88500000D01*
X73825000Y-100800000D02*
X72080000Y-99055000D01*
X100900000Y-88500000D02*
X99700000Y-89700000D01*
X98400000Y-72300000D02*
X100900000Y-74800000D01*
X74400000Y-100800000D02*
X73825000Y-100800000D01*
%TO.N,/D-*%
X98050000Y-64150000D02*
X100700000Y-66800000D01*
X61800000Y-73000000D02*
X48600000Y-73000000D01*
X100700000Y-66800000D02*
X100700000Y-70200000D01*
X62100000Y-72700000D02*
X61800000Y-73000000D01*
X100700000Y-70200000D02*
X100600000Y-70300000D01*
X82400000Y-64100000D02*
X82450000Y-64150000D01*
X48600000Y-73000000D02*
X44900000Y-76700000D01*
X82450000Y-64150000D02*
X98050000Y-64150000D01*
%TO.N,/D+*%
X91100000Y-64800000D02*
X95900000Y-64800000D01*
X97100000Y-64800000D02*
X99800000Y-67500000D01*
X95900000Y-64800000D02*
X97100000Y-64800000D01*
X81800000Y-74100000D02*
X91100000Y-64800000D01*
%TO.N,/LCD_CS*%
X60800000Y-64900000D02*
X56100000Y-60200000D01*
X56100000Y-60200000D02*
X56100000Y-58000000D01*
X83100000Y-81600000D02*
X83100000Y-86700000D01*
X87000000Y-76300000D02*
X86579346Y-76300000D01*
X67500000Y-83400000D02*
X63500000Y-79400000D01*
X56100000Y-57500000D02*
X58000000Y-55600000D01*
X62000000Y-69900000D02*
X61200000Y-69900000D01*
X86579346Y-76300000D02*
X83100000Y-79779346D01*
X58000000Y-55600000D02*
X58600000Y-55600000D01*
X76700000Y-84600000D02*
X74400000Y-86900000D01*
X56100000Y-58000000D02*
X56100000Y-57500000D01*
X77100000Y-84600000D02*
X76700000Y-84600000D01*
X63500000Y-79400000D02*
X63500000Y-71400000D01*
X63500000Y-71400000D02*
X62000000Y-69900000D01*
X83100000Y-79779346D02*
X83100000Y-81600000D01*
%TO.N,/LCD_SDA*%
X89051000Y-77469654D02*
X89051000Y-76230346D01*
X86151000Y-74749000D02*
X85049000Y-75851000D01*
X87569654Y-74749000D02*
X86151000Y-74749000D01*
X89051000Y-76230346D02*
X87569654Y-74749000D01*
X88400000Y-78000003D02*
X88520651Y-78000003D01*
X88520651Y-78000003D02*
X89051000Y-77469654D01*
X85049000Y-75851000D02*
X81151000Y-75851000D01*
X81151000Y-75851000D02*
X76900000Y-71600000D01*
%TO.N,/LCD_SCK*%
X87700000Y-80300000D02*
X86100000Y-80300000D01*
X89701000Y-76500000D02*
X89701000Y-79399000D01*
X83300000Y-77400000D02*
X79900000Y-77400000D01*
X89701000Y-79399000D02*
X89700000Y-79400000D01*
X88800000Y-80300000D02*
X87700000Y-80300000D01*
X79900000Y-77400000D02*
X65300000Y-62800000D01*
X86100000Y-80300000D02*
X85400000Y-79600000D01*
X89700000Y-79400000D02*
X88800000Y-80300000D01*
%TO.N,/LCD_DC*%
X65300000Y-57400000D02*
X58100000Y-57400000D01*
%TO.N,/LCD_BL*%
X88400000Y-77200000D02*
X86600000Y-77200000D01*
X81600000Y-79800000D02*
X79200000Y-79800000D01*
X79200000Y-79800000D02*
X78600000Y-79200000D01*
X78600000Y-79200000D02*
X63000000Y-63600000D01*
X86600000Y-77200000D02*
X84500000Y-79300000D01*
%TO.N,/LCD_RST*%
X80500000Y-86400000D02*
X77001000Y-82901000D01*
X82600000Y-79500000D02*
X82600000Y-86000000D01*
X76619654Y-82499000D02*
X76599000Y-82499000D01*
X82200000Y-86400000D02*
X80500000Y-86400000D01*
X53660000Y-60660000D02*
X53600000Y-60600000D01*
X86700000Y-75400000D02*
X82600000Y-79500000D01*
X53660000Y-62460000D02*
X53660000Y-60660000D01*
X61400000Y-67300000D02*
X58500000Y-67300000D01*
X77001000Y-82880346D02*
X76619654Y-82499000D01*
X58500000Y-67300000D02*
X53660000Y-62460000D01*
X77001000Y-82901000D02*
X77001000Y-82880346D01*
X82600000Y-86000000D02*
X82200000Y-86400000D01*
X76599000Y-82499000D02*
X61400000Y-67300000D01*
%TO.N,/BOOT*%
X90900000Y-73200000D02*
X90900000Y-82579346D01*
X52100000Y-102000000D02*
X51200000Y-101100000D01*
X51200000Y-96600000D02*
X50600000Y-96000000D01*
X90900000Y-82579346D02*
X90951000Y-82630346D01*
X60600000Y-102700000D02*
X59900000Y-102000000D01*
X51200000Y-101100000D02*
X51200000Y-96600000D01*
X90951000Y-83169654D02*
X90900000Y-83220654D01*
X90951000Y-82630346D02*
X90951000Y-83169654D01*
X59900000Y-102000000D02*
X52100000Y-102000000D01*
X90900000Y-83220654D02*
X90900000Y-92800000D01*
X90900000Y-92800000D02*
X81000000Y-102700000D01*
X81000000Y-102700000D02*
X60600000Y-102700000D01*
%TO.N,/BTN_1*%
X111400000Y-73100000D02*
X111500000Y-73200000D01*
X104475000Y-75275000D02*
X104475000Y-80750000D01*
X91351000Y-72549000D02*
X93000000Y-70900000D01*
X86770240Y-72549000D02*
X91351000Y-72549000D01*
X93000000Y-70900000D02*
X100100000Y-70900000D01*
X104475000Y-74325000D02*
X105700000Y-73100000D01*
X84600000Y-75200000D02*
X84600000Y-74719240D01*
X104475000Y-80750000D02*
X104475000Y-74325000D01*
X105700000Y-73100000D02*
X111400000Y-73100000D01*
X111500000Y-73200000D02*
X117750000Y-73200000D01*
X84600000Y-74719240D02*
X86770240Y-72549000D01*
X100100000Y-70900000D02*
X104475000Y-75275000D01*
%TO.N,/BTN_2*%
X92500000Y-84500000D02*
X98400000Y-90400000D01*
X91550000Y-84500000D02*
X92500000Y-84500000D01*
X104475000Y-98000000D02*
X104475000Y-91625000D01*
X105650000Y-90450000D02*
X117750000Y-90450000D01*
X104475000Y-91625000D02*
X105650000Y-90450000D01*
X98700000Y-90400000D02*
X104475000Y-96175000D01*
X98400000Y-90400000D02*
X98700000Y-90400000D01*
X104475000Y-96175000D02*
X104475000Y-98000000D01*
%TO.N,/BTN_3*%
X107150000Y-55950000D02*
X117750000Y-55950000D01*
X104475000Y-63500000D02*
X104475000Y-58625000D01*
X104475000Y-66925000D02*
X104475000Y-63500000D01*
X103800000Y-67600000D02*
X104475000Y-66925000D01*
X104475000Y-58625000D02*
X107150000Y-55950000D01*
%TO.N,/FLASH_MISO*%
X96800000Y-62800000D02*
X96300000Y-62300000D01*
X90600000Y-62300000D02*
X89800000Y-61500000D01*
X96800000Y-63500000D02*
X96800000Y-62800000D01*
X96300000Y-62300000D02*
X90600000Y-62300000D01*
D21*
%TO.N,/VIN*%
X68700000Y-56600000D02*
X68700000Y-58100000D01*
X65000000Y-61800000D02*
X62100000Y-61800000D01*
X76000000Y-55800000D02*
X69500000Y-55800000D01*
X61950000Y-61950000D02*
X61950000Y-63750000D01*
X62100000Y-61800000D02*
X61950000Y-61950000D01*
X68700000Y-58100000D02*
X65000000Y-61800000D01*
X69500000Y-55800000D02*
X68700000Y-56600000D01*
X79800000Y-81600000D02*
X79800000Y-82700000D01*
X76000000Y-55800000D02*
X76500000Y-55800000D01*
X79800000Y-82700000D02*
X81500000Y-84400000D01*
X81500000Y-84400000D02*
X81800000Y-84400000D01*
X61950000Y-63750000D02*
X79800000Y-81600000D01*
%TD*%
M02*
