%TF.GenerationSoftware,KiCad,Pcbnew,9.0.6*%
%TF.CreationDate,2025-12-14T01:17:05-08:00*%
%TF.ProjectId,base-station,62617365-2d73-4746-9174-696f6e2e6b69,rev?*%
%TF.SameCoordinates,Original*%
%TF.FileFunction,Soldermask,Bot*%
%TF.FilePolarity,Negative*%
%FSLAX46Y46*%
G04 Gerber Fmt 4.6, Leading zero omitted, Abs format (unit mm)*
G04 Created by KiCad (PCBNEW 9.0.6) date 2025-12-14 01:17:05*
%MOMM*%
%LPD*%
G01*
G04 APERTURE LIST*
G04 Aperture macros list*
%AMRoundRect*
0 Rectangle with rounded corners*
0 $1 Rounding radius*
0 $2 $3 $4 $5 $6 $7 $8 $9 X,Y pos of 4 corners*
0 Add a 4 corners polygon primitive as box body*
4,1,4,$2,$3,$4,$5,$6,$7,$8,$9,$2,$3,0*
0 Add four circle primitives for the rounded corners*
1,1,$1+$1,$2,$3*
1,1,$1+$1,$4,$5*
1,1,$1+$1,$6,$7*
1,1,$1+$1,$8,$9*
0 Add four rect primitives between the rounded corners*
20,1,$1+$1,$2,$3,$4,$5,0*
20,1,$1+$1,$4,$5,$6,$7,0*
20,1,$1+$1,$6,$7,$8,$9,0*
20,1,$1+$1,$8,$9,$2,$3,0*%
G04 Aperture macros list end*
%ADD10C,3.500000*%
%ADD11C,0.900000*%
%ADD12RoundRect,0.250000X-0.625000X0.350000X-0.625000X-0.350000X0.625000X-0.350000X0.625000X0.350000X0*%
%ADD13O,1.750000X1.200000*%
%ADD14C,4.000000*%
%ADD15C,1.701800*%
%ADD16C,3.000000*%
%ADD17C,3.429000*%
%ADD18R,2.600000X2.600000*%
%ADD19C,2.032000*%
%ADD20C,0.650000*%
%ADD21O,2.100000X1.000000*%
%ADD22O,1.600000X1.000000*%
%ADD23R,1.700000X1.700000*%
%ADD24C,1.700000*%
%ADD25C,2.100000*%
%ADD26C,2.000000*%
G04 APERTURE END LIST*
D10*
%TO.C,H1*%
X44750000Y-62500000D03*
%TD*%
D11*
%TO.C,SW3*%
X46700000Y-101855000D03*
X49700000Y-101855000D03*
%TD*%
D12*
%TO.C,J4*%
X39650000Y-87000000D03*
D13*
X39650000Y-89000000D03*
%TD*%
D14*
%TO.C,H5*%
X39200000Y-55000000D03*
%TD*%
%TO.C,H6*%
X39200000Y-99000000D03*
%TD*%
D10*
%TO.C,H2*%
X75250000Y-62500000D03*
%TD*%
D15*
%TO.C,SW5*%
X118250000Y-94250000D03*
D16*
X112750000Y-100200000D03*
D17*
X112750000Y-94250000D03*
D16*
X107750000Y-98000000D03*
D15*
X107250000Y-94250000D03*
D18*
X116025000Y-100200000D03*
D19*
X112750000Y-88350000D03*
X117750000Y-90450000D03*
D18*
X104475000Y-98000000D03*
%TD*%
D20*
%TO.C,J2*%
X39355000Y-74110000D03*
X39355000Y-79890000D03*
D21*
X39885000Y-72680000D03*
D22*
X35705000Y-72680000D03*
D21*
X39885000Y-81320000D03*
D22*
X35705000Y-81320000D03*
%TD*%
D23*
%TO.C,J3*%
X68900000Y-52900000D03*
D24*
X66360000Y-52900000D03*
X63820000Y-52900000D03*
X61280000Y-52900000D03*
X58740000Y-52900000D03*
X56200000Y-52900000D03*
X53660000Y-52900000D03*
X51120000Y-52900000D03*
%TD*%
D23*
%TO.C,J5*%
X90375000Y-52900000D03*
D24*
X87835000Y-52900000D03*
%TD*%
D14*
%TO.C,H3*%
X98500000Y-55000000D03*
%TD*%
D15*
%TO.C,SW6*%
X118250000Y-59750000D03*
D16*
X112750000Y-65700000D03*
D17*
X112750000Y-59750000D03*
D16*
X107750000Y-63500000D03*
D15*
X107250000Y-59750000D03*
D18*
X116025000Y-65700000D03*
D19*
X112750000Y-53850000D03*
X117750000Y-55950000D03*
D18*
X104475000Y-63500000D03*
%TD*%
D14*
%TO.C,H4*%
X98500000Y-99000000D03*
%TD*%
D15*
%TO.C,SW4*%
X118250000Y-77000000D03*
D16*
X112750000Y-82950000D03*
D17*
X112750000Y-77000000D03*
D16*
X107750000Y-80750000D03*
D15*
X107250000Y-77000000D03*
D18*
X116025000Y-82950000D03*
D19*
X112750000Y-71100000D03*
X117750000Y-73200000D03*
D18*
X104475000Y-80750000D03*
%TD*%
D11*
%TO.C,SW2*%
X78800000Y-52570000D03*
X75800000Y-52570000D03*
%TD*%
D25*
%TO.C,H7*%
X61920000Y-99055000D03*
%TD*%
D26*
%TO.C,J1*%
X77160000Y-99055000D03*
X74620000Y-99055000D03*
X72080000Y-99055000D03*
X69540000Y-99055000D03*
X67000000Y-99055000D03*
X64460000Y-99055000D03*
%TD*%
D25*
%TO.C,H8*%
X79700000Y-99055000D03*
%TD*%
M02*
