M48
; DRILL file {KiCad 9.0.6} date 2025-12-14T01:17:07-0800
; FORMAT={-:-/ absolute / metric / decimal}
; #@! TF.CreationDate,2025-12-14T01:17:07-08:00
; #@! TF.GenerationSoftware,Kicad,Pcbnew,9.0.6
; #@! TF.FileFunction,Plated,1,4,PTH
FMAT,2
METRIC
; #@! TA.AperFunction,Plated,PTH,ViaDrill
T1C0.300
; #@! TA.AperFunction,Plated,PTH,ComponentDrill
T2C0.600
; #@! TA.AperFunction,Plated,PTH,ComponentDrill
T3C0.750
; #@! TA.AperFunction,Plated,PTH,ComponentDrill
T4C1.000
; #@! TA.AperFunction,Plated,PTH,ComponentDrill
T5C1.270
%
G90
G05
T1
X41.9Y-89.4
X42.3Y-84.6
X42.4Y-80.9
X44.0Y-72.2
X44.9Y-76.7
X47.0Y-98.6
X48.0Y-80.4
X50.3Y-98.6
X50.6Y-96.0
X53.6Y-60.6
X58.1Y-57.4
X58.6Y-55.6
X59.3Y-98.3
X59.8Y-101.1
X60.8Y-64.9
X61.2Y-69.9
X62.1Y-72.7
X63.0Y-63.6
X64.1Y-97.5
X64.8Y-71.9
X65.3Y-57.4
X65.3Y-62.8
X67.5Y-83.4
X68.4Y-55.3
X69.2Y-86.5
X70.5Y-66.2
X73.8Y-56.6
X74.2Y-97.4
X74.3Y-101.8
X74.4Y-86.9
X74.4Y-100.8
X76.0Y-83.5
X76.5Y-55.8
X76.9Y-71.6
X77.1Y-84.6
X77.4Y-97.2
X78.4Y-57.4
X81.3Y-70.6
X81.6Y-79.8
X81.8Y-74.1
X81.8Y-84.4
X82.4Y-64.1
X83.1Y-86.7
X83.3Y-77.4
X83.8Y-85.4
X83.8Y-96.3
X83.9Y-74.5
X84.5Y-61.75
X84.5Y-63.0
X84.5Y-79.3
X84.6Y-75.2
X84.6Y-81.7
X85.4Y-79.6
X85.5Y-71.9
X86.0Y-96.0
X86.1Y-66.3
X86.7Y-75.4
X87.0Y-76.3
X87.048Y-67.637
X88.0Y-93.8
X88.4Y-77.2
X88.4Y-78.0
X89.3Y-96.1
X89.6Y-85.1
X89.701Y-76.5
X89.8Y-61.5
X89.9Y-71.3
X90.2Y-68.2
X90.3Y-82.9
X90.9Y-73.2
X91.5Y-59.25
X91.55Y-84.5
X91.75Y-60.5
X92.3Y-81.9
X93.8Y-73.7
X95.3Y-73.7
X96.3Y-81.2
X96.8Y-63.5
X97.6Y-75.5
X98.4Y-72.3
X99.0Y-71.6
X99.7Y-89.7
X99.8Y-67.5
X100.4Y-90.5
X100.6Y-70.3
X100.7Y-73.6
X101.8Y-71.0
X103.8Y-67.6
X111.9Y-69.4
X112.2Y-52.0
X112.2Y-86.9
X116.8Y-67.6
X117.0Y-84.7
X117.3Y-102.1
T3
X39.65Y-87.0
X39.65Y-89.0
T4
X51.12Y-52.9
X53.66Y-52.9
X56.2Y-52.9
X58.74Y-52.9
X61.28Y-52.9
X63.82Y-52.9
X66.36Y-52.9
X68.9Y-52.9
X87.835Y-52.9
X90.375Y-52.9
T5
X112.75Y-53.85
X112.75Y-71.1
X112.75Y-88.35
X117.75Y-55.95
X117.75Y-73.2
X117.75Y-90.45
T2
G00X36.005Y-72.68
M15
G01X35.405Y-72.68
M16
G05
G00X36.005Y-81.32
M15
G01X35.405Y-81.32
M16
G05
G00X40.435Y-72.68
M15
G01X39.335Y-72.68
M16
G05
G00X40.435Y-81.32
M15
G01X39.335Y-81.32
M16
G05
M30
